%TF.GenerationSoftware,KiCad,Pcbnew,(6.0.0-0)*%
%TF.CreationDate,2022-08-25T03:12:56-06:00*%
%TF.ProjectId,FlippyControl,466c6970-7079-4436-9f6e-74726f6c2e6b,A*%
%TF.SameCoordinates,Original*%
%TF.FileFunction,Legend,Top*%
%TF.FilePolarity,Positive*%
%FSLAX46Y46*%
G04 Gerber Fmt 4.6, Leading zero omitted, Abs format (unit mm)*
G04 Created by KiCad (PCBNEW (6.0.0-0)) date 2022-08-25 03:12:56*
%MOMM*%
%LPD*%
G01*
G04 APERTURE LIST*
G04 Aperture macros list*
%AMRoundRect*
0 Rectangle with rounded corners*
0 $1 Rounding radius*
0 $2 $3 $4 $5 $6 $7 $8 $9 X,Y pos of 4 corners*
0 Add a 4 corners polygon primitive as box body*
4,1,4,$2,$3,$4,$5,$6,$7,$8,$9,$2,$3,0*
0 Add four circle primitives for the rounded corners*
1,1,$1+$1,$2,$3*
1,1,$1+$1,$4,$5*
1,1,$1+$1,$6,$7*
1,1,$1+$1,$8,$9*
0 Add four rect primitives between the rounded corners*
20,1,$1+$1,$2,$3,$4,$5,0*
20,1,$1+$1,$4,$5,$6,$7,0*
20,1,$1+$1,$6,$7,$8,$9,0*
20,1,$1+$1,$8,$9,$2,$3,0*%
G04 Aperture macros list end*
%ADD10C,0.150000*%
%ADD11C,0.127140*%
%ADD12C,0.120000*%
%ADD13C,0.100000*%
%ADD14C,0.010000*%
%ADD15O,1.727200X2.032000*%
%ADD16C,4.064000*%
%ADD17RoundRect,0.050000X-0.450000X-0.600000X0.450000X-0.600000X0.450000X0.600000X-0.450000X0.600000X0*%
%ADD18C,1.500000*%
%ADD19RoundRect,0.050000X-3.799586X0.649986X-3.799586X-0.649986X3.799586X-0.649986X3.799586X0.649986X0*%
%ADD20O,1.827200X2.132000*%
%ADD21C,4.164000*%
%ADD22C,2.900000*%
%ADD23O,0.800000X0.700000*%
%ADD24O,2.500000X1.000000*%
%ADD25O,1.800000X1.000000*%
%ADD26C,3.100000*%
%ADD27RoundRect,0.300000X-0.600000X-0.600000X0.600000X-0.600000X0.600000X0.600000X-0.600000X0.600000X0*%
%ADD28C,1.800000*%
%ADD29RoundRect,0.050000X-0.850000X0.850000X-0.850000X-0.850000X0.850000X-0.850000X0.850000X0.850000X0*%
%ADD30O,1.800000X1.800000*%
%ADD31RoundRect,0.250000X0.200000X0.275000X-0.200000X0.275000X-0.200000X-0.275000X0.200000X-0.275000X0*%
%ADD32C,0.700000*%
G04 APERTURE END LIST*
D10*
X122133595Y-114283571D02*
X122466928Y-114283571D01*
X122609785Y-114807380D02*
X122133595Y-114807380D01*
X122133595Y-113807380D01*
X122609785Y-113807380D01*
X122990738Y-114759761D02*
X123133595Y-114807380D01*
X123371690Y-114807380D01*
X123466928Y-114759761D01*
X123514547Y-114712142D01*
X123562166Y-114616904D01*
X123562166Y-114521666D01*
X123514547Y-114426428D01*
X123466928Y-114378809D01*
X123371690Y-114331190D01*
X123181214Y-114283571D01*
X123085976Y-114235952D01*
X123038357Y-114188333D01*
X122990738Y-114093095D01*
X122990738Y-113997857D01*
X123038357Y-113902619D01*
X123085976Y-113855000D01*
X123181214Y-113807380D01*
X123419309Y-113807380D01*
X123562166Y-113855000D01*
X123990738Y-114807380D02*
X123990738Y-113807380D01*
X124371690Y-113807380D01*
X124466928Y-113855000D01*
X124514547Y-113902619D01*
X124562166Y-113997857D01*
X124562166Y-114140714D01*
X124514547Y-114235952D01*
X124466928Y-114283571D01*
X124371690Y-114331190D01*
X123990738Y-114331190D01*
X124895500Y-113807380D02*
X125514547Y-113807380D01*
X125181214Y-114188333D01*
X125324071Y-114188333D01*
X125419309Y-114235952D01*
X125466928Y-114283571D01*
X125514547Y-114378809D01*
X125514547Y-114616904D01*
X125466928Y-114712142D01*
X125419309Y-114759761D01*
X125324071Y-114807380D01*
X125038357Y-114807380D01*
X124943119Y-114759761D01*
X124895500Y-114712142D01*
X125895500Y-113902619D02*
X125943119Y-113855000D01*
X126038357Y-113807380D01*
X126276452Y-113807380D01*
X126371690Y-113855000D01*
X126419309Y-113902619D01*
X126466928Y-113997857D01*
X126466928Y-114093095D01*
X126419309Y-114235952D01*
X125847880Y-114807380D01*
X126466928Y-114807380D01*
X128371690Y-113759761D02*
X127514547Y-115045476D01*
X129419309Y-114521666D02*
X129895500Y-114521666D01*
X129324071Y-114807380D02*
X129657404Y-113807380D01*
X129990738Y-114807380D01*
X130324071Y-114807380D02*
X130324071Y-114140714D01*
X130324071Y-114331190D02*
X130371690Y-114235952D01*
X130419309Y-114188333D01*
X130514547Y-114140714D01*
X130609785Y-114140714D01*
X131371690Y-114807380D02*
X131371690Y-113807380D01*
X131371690Y-114759761D02*
X131276452Y-114807380D01*
X131085976Y-114807380D01*
X130990738Y-114759761D01*
X130943119Y-114712142D01*
X130895500Y-114616904D01*
X130895500Y-114331190D01*
X130943119Y-114235952D01*
X130990738Y-114188333D01*
X131085976Y-114140714D01*
X131276452Y-114140714D01*
X131371690Y-114188333D01*
X132276452Y-114140714D02*
X132276452Y-114807380D01*
X131847880Y-114140714D02*
X131847880Y-114664523D01*
X131895500Y-114759761D01*
X131990738Y-114807380D01*
X132133595Y-114807380D01*
X132228833Y-114759761D01*
X132276452Y-114712142D01*
X132752642Y-114807380D02*
X132752642Y-114140714D01*
X132752642Y-113807380D02*
X132705023Y-113855000D01*
X132752642Y-113902619D01*
X132800261Y-113855000D01*
X132752642Y-113807380D01*
X132752642Y-113902619D01*
X133228833Y-114140714D02*
X133228833Y-114807380D01*
X133228833Y-114235952D02*
X133276452Y-114188333D01*
X133371690Y-114140714D01*
X133514547Y-114140714D01*
X133609785Y-114188333D01*
X133657404Y-114283571D01*
X133657404Y-114807380D01*
X134276452Y-114807380D02*
X134181214Y-114759761D01*
X134133595Y-114712142D01*
X134085976Y-114616904D01*
X134085976Y-114331190D01*
X134133595Y-114235952D01*
X134181214Y-114188333D01*
X134276452Y-114140714D01*
X134419309Y-114140714D01*
X134514547Y-114188333D01*
X134562166Y-114235952D01*
X134609785Y-114331190D01*
X134609785Y-114616904D01*
X134562166Y-114712142D01*
X134514547Y-114759761D01*
X134419309Y-114807380D01*
X134276452Y-114807380D01*
X122133595Y-116417380D02*
X122133595Y-115417380D01*
X122466928Y-116131666D01*
X122800261Y-115417380D01*
X122800261Y-116417380D01*
X123228833Y-116131666D02*
X123705023Y-116131666D01*
X123133595Y-116417380D02*
X123466928Y-115417380D01*
X123800261Y-116417380D01*
X124038357Y-115417380D02*
X124705023Y-116417380D01*
X124705023Y-115417380D02*
X124038357Y-116417380D01*
X124990738Y-115417380D02*
X125609785Y-115417380D01*
X125276452Y-115798333D01*
X125419309Y-115798333D01*
X125514547Y-115845952D01*
X125562166Y-115893571D01*
X125609785Y-115988809D01*
X125609785Y-116226904D01*
X125562166Y-116322142D01*
X125514547Y-116369761D01*
X125419309Y-116417380D01*
X125133595Y-116417380D01*
X125038357Y-116369761D01*
X124990738Y-116322142D01*
X126228833Y-115417380D02*
X126324071Y-115417380D01*
X126419309Y-115465000D01*
X126466928Y-115512619D01*
X126514547Y-115607857D01*
X126562166Y-115798333D01*
X126562166Y-116036428D01*
X126514547Y-116226904D01*
X126466928Y-116322142D01*
X126419309Y-116369761D01*
X126324071Y-116417380D01*
X126228833Y-116417380D01*
X126133595Y-116369761D01*
X126085976Y-116322142D01*
X126038357Y-116226904D01*
X125990738Y-116036428D01*
X125990738Y-115798333D01*
X126038357Y-115607857D01*
X126085976Y-115512619D01*
X126133595Y-115465000D01*
X126228833Y-115417380D01*
X127181214Y-115417380D02*
X127276452Y-115417380D01*
X127371690Y-115465000D01*
X127419309Y-115512619D01*
X127466928Y-115607857D01*
X127514547Y-115798333D01*
X127514547Y-116036428D01*
X127466928Y-116226904D01*
X127419309Y-116322142D01*
X127371690Y-116369761D01*
X127276452Y-116417380D01*
X127181214Y-116417380D01*
X127085976Y-116369761D01*
X127038357Y-116322142D01*
X126990738Y-116226904D01*
X126943119Y-116036428D01*
X126943119Y-115798333D01*
X126990738Y-115607857D01*
X127038357Y-115512619D01*
X127085976Y-115465000D01*
X127181214Y-115417380D01*
X128133595Y-115417380D02*
X128228833Y-115417380D01*
X128324071Y-115465000D01*
X128371690Y-115512619D01*
X128419309Y-115607857D01*
X128466928Y-115798333D01*
X128466928Y-116036428D01*
X128419309Y-116226904D01*
X128371690Y-116322142D01*
X128324071Y-116369761D01*
X128228833Y-116417380D01*
X128133595Y-116417380D01*
X128038357Y-116369761D01*
X127990738Y-116322142D01*
X127943119Y-116226904D01*
X127895500Y-116036428D01*
X127895500Y-115798333D01*
X127943119Y-115607857D01*
X127990738Y-115512619D01*
X128038357Y-115465000D01*
X128133595Y-115417380D01*
X129657404Y-116417380D02*
X129657404Y-115417380D01*
X129895500Y-115417380D01*
X130038357Y-115465000D01*
X130133595Y-115560238D01*
X130181214Y-115655476D01*
X130228833Y-115845952D01*
X130228833Y-115988809D01*
X130181214Y-116179285D01*
X130133595Y-116274523D01*
X130038357Y-116369761D01*
X129895500Y-116417380D01*
X129657404Y-116417380D01*
X130657404Y-116417380D02*
X130657404Y-115750714D01*
X130657404Y-115941190D02*
X130705023Y-115845952D01*
X130752642Y-115798333D01*
X130847880Y-115750714D01*
X130943119Y-115750714D01*
X131276452Y-116417380D02*
X131276452Y-115750714D01*
X131276452Y-115417380D02*
X131228833Y-115465000D01*
X131276452Y-115512619D01*
X131324071Y-115465000D01*
X131276452Y-115417380D01*
X131276452Y-115512619D01*
X131657404Y-115750714D02*
X131895500Y-116417380D01*
X132133595Y-115750714D01*
X132895500Y-116369761D02*
X132800261Y-116417380D01*
X132609785Y-116417380D01*
X132514547Y-116369761D01*
X132466928Y-116274523D01*
X132466928Y-115893571D01*
X132514547Y-115798333D01*
X132609785Y-115750714D01*
X132800261Y-115750714D01*
X132895500Y-115798333D01*
X132943119Y-115893571D01*
X132943119Y-115988809D01*
X132466928Y-116084047D01*
X133371690Y-116417380D02*
X133371690Y-115750714D01*
X133371690Y-115941190D02*
X133419309Y-115845952D01*
X133466928Y-115798333D01*
X133562166Y-115750714D01*
X133657404Y-115750714D01*
X134752642Y-116417380D02*
X134752642Y-115417380D01*
X135228833Y-115750714D02*
X135228833Y-116417380D01*
X135228833Y-115845952D02*
X135276452Y-115798333D01*
X135371690Y-115750714D01*
X135514547Y-115750714D01*
X135609785Y-115798333D01*
X135657404Y-115893571D01*
X135657404Y-116417380D01*
X135990738Y-115750714D02*
X136371690Y-115750714D01*
X136133595Y-115417380D02*
X136133595Y-116274523D01*
X136181214Y-116369761D01*
X136276452Y-116417380D01*
X136371690Y-116417380D01*
X137085976Y-116369761D02*
X136990738Y-116417380D01*
X136800261Y-116417380D01*
X136705023Y-116369761D01*
X136657404Y-116274523D01*
X136657404Y-115893571D01*
X136705023Y-115798333D01*
X136800261Y-115750714D01*
X136990738Y-115750714D01*
X137085976Y-115798333D01*
X137133595Y-115893571D01*
X137133595Y-115988809D01*
X136657404Y-116084047D01*
X137562166Y-116417380D02*
X137562166Y-115750714D01*
X137562166Y-115941190D02*
X137609785Y-115845952D01*
X137657404Y-115798333D01*
X137752642Y-115750714D01*
X137847880Y-115750714D01*
X138038357Y-115750714D02*
X138419309Y-115750714D01*
X138181214Y-116417380D02*
X138181214Y-115560238D01*
X138228833Y-115465000D01*
X138324071Y-115417380D01*
X138419309Y-115417380D01*
X139181214Y-116417380D02*
X139181214Y-115893571D01*
X139133595Y-115798333D01*
X139038357Y-115750714D01*
X138847880Y-115750714D01*
X138752642Y-115798333D01*
X139181214Y-116369761D02*
X139085976Y-116417380D01*
X138847880Y-116417380D01*
X138752642Y-116369761D01*
X138705023Y-116274523D01*
X138705023Y-116179285D01*
X138752642Y-116084047D01*
X138847880Y-116036428D01*
X139085976Y-116036428D01*
X139181214Y-115988809D01*
X140085976Y-116369761D02*
X139990738Y-116417380D01*
X139800261Y-116417380D01*
X139705023Y-116369761D01*
X139657404Y-116322142D01*
X139609785Y-116226904D01*
X139609785Y-115941190D01*
X139657404Y-115845952D01*
X139705023Y-115798333D01*
X139800261Y-115750714D01*
X139990738Y-115750714D01*
X140085976Y-115798333D01*
X140895500Y-116369761D02*
X140800261Y-116417380D01*
X140609785Y-116417380D01*
X140514547Y-116369761D01*
X140466928Y-116274523D01*
X140466928Y-115893571D01*
X140514547Y-115798333D01*
X140609785Y-115750714D01*
X140800261Y-115750714D01*
X140895500Y-115798333D01*
X140943119Y-115893571D01*
X140943119Y-115988809D01*
X140466928Y-116084047D01*
X122085976Y-117122619D02*
X122133595Y-117075000D01*
X122228833Y-117027380D01*
X122466928Y-117027380D01*
X122562166Y-117075000D01*
X122609785Y-117122619D01*
X122657404Y-117217857D01*
X122657404Y-117313095D01*
X122609785Y-117455952D01*
X122038357Y-118027380D01*
X122657404Y-118027380D01*
X123276452Y-117027380D02*
X123371690Y-117027380D01*
X123466928Y-117075000D01*
X123514547Y-117122619D01*
X123562166Y-117217857D01*
X123609785Y-117408333D01*
X123609785Y-117646428D01*
X123562166Y-117836904D01*
X123514547Y-117932142D01*
X123466928Y-117979761D01*
X123371690Y-118027380D01*
X123276452Y-118027380D01*
X123181214Y-117979761D01*
X123133595Y-117932142D01*
X123085976Y-117836904D01*
X123038357Y-117646428D01*
X123038357Y-117408333D01*
X123085976Y-117217857D01*
X123133595Y-117122619D01*
X123181214Y-117075000D01*
X123276452Y-117027380D01*
X123990738Y-117122619D02*
X124038357Y-117075000D01*
X124133595Y-117027380D01*
X124371690Y-117027380D01*
X124466928Y-117075000D01*
X124514547Y-117122619D01*
X124562166Y-117217857D01*
X124562166Y-117313095D01*
X124514547Y-117455952D01*
X123943119Y-118027380D01*
X124562166Y-118027380D01*
X124943119Y-117122619D02*
X124990738Y-117075000D01*
X125085976Y-117027380D01*
X125324071Y-117027380D01*
X125419309Y-117075000D01*
X125466928Y-117122619D01*
X125514547Y-117217857D01*
X125514547Y-117313095D01*
X125466928Y-117455952D01*
X124895500Y-118027380D01*
X125514547Y-118027380D01*
X125943119Y-117646428D02*
X126705023Y-117646428D01*
X127371690Y-117027380D02*
X127466928Y-117027380D01*
X127562166Y-117075000D01*
X127609785Y-117122619D01*
X127657404Y-117217857D01*
X127705023Y-117408333D01*
X127705023Y-117646428D01*
X127657404Y-117836904D01*
X127609785Y-117932142D01*
X127562166Y-117979761D01*
X127466928Y-118027380D01*
X127371690Y-118027380D01*
X127276452Y-117979761D01*
X127228833Y-117932142D01*
X127181214Y-117836904D01*
X127133595Y-117646428D01*
X127133595Y-117408333D01*
X127181214Y-117217857D01*
X127228833Y-117122619D01*
X127276452Y-117075000D01*
X127371690Y-117027380D01*
X128276452Y-117455952D02*
X128181214Y-117408333D01*
X128133595Y-117360714D01*
X128085976Y-117265476D01*
X128085976Y-117217857D01*
X128133595Y-117122619D01*
X128181214Y-117075000D01*
X128276452Y-117027380D01*
X128466928Y-117027380D01*
X128562166Y-117075000D01*
X128609785Y-117122619D01*
X128657404Y-117217857D01*
X128657404Y-117265476D01*
X128609785Y-117360714D01*
X128562166Y-117408333D01*
X128466928Y-117455952D01*
X128276452Y-117455952D01*
X128181214Y-117503571D01*
X128133595Y-117551190D01*
X128085976Y-117646428D01*
X128085976Y-117836904D01*
X128133595Y-117932142D01*
X128181214Y-117979761D01*
X128276452Y-118027380D01*
X128466928Y-118027380D01*
X128562166Y-117979761D01*
X128609785Y-117932142D01*
X128657404Y-117836904D01*
X128657404Y-117646428D01*
X128609785Y-117551190D01*
X128562166Y-117503571D01*
X128466928Y-117455952D01*
X129085976Y-117646428D02*
X129847880Y-117646428D01*
X130847880Y-118027380D02*
X130276452Y-118027380D01*
X130562166Y-118027380D02*
X130562166Y-117027380D01*
X130466928Y-117170238D01*
X130371690Y-117265476D01*
X130276452Y-117313095D01*
X131752642Y-117027380D02*
X131276452Y-117027380D01*
X131228833Y-117503571D01*
X131276452Y-117455952D01*
X131371690Y-117408333D01*
X131609785Y-117408333D01*
X131705023Y-117455952D01*
X131752642Y-117503571D01*
X131800261Y-117598809D01*
X131800261Y-117836904D01*
X131752642Y-117932142D01*
X131705023Y-117979761D01*
X131609785Y-118027380D01*
X131371690Y-118027380D01*
X131276452Y-117979761D01*
X131228833Y-117932142D01*
X133276452Y-118408333D02*
X133228833Y-118360714D01*
X133133595Y-118217857D01*
X133085976Y-118122619D01*
X133038357Y-117979761D01*
X132990738Y-117741666D01*
X132990738Y-117551190D01*
X133038357Y-117313095D01*
X133085976Y-117170238D01*
X133133595Y-117075000D01*
X133228833Y-116932142D01*
X133276452Y-116884523D01*
X134228833Y-118027380D02*
X133895500Y-117551190D01*
X133657404Y-118027380D02*
X133657404Y-117027380D01*
X134038357Y-117027380D01*
X134133595Y-117075000D01*
X134181214Y-117122619D01*
X134228833Y-117217857D01*
X134228833Y-117360714D01*
X134181214Y-117455952D01*
X134133595Y-117503571D01*
X134038357Y-117551190D01*
X133657404Y-117551190D01*
X135038357Y-117979761D02*
X134943119Y-118027380D01*
X134752642Y-118027380D01*
X134657404Y-117979761D01*
X134609785Y-117884523D01*
X134609785Y-117503571D01*
X134657404Y-117408333D01*
X134752642Y-117360714D01*
X134943119Y-117360714D01*
X135038357Y-117408333D01*
X135085976Y-117503571D01*
X135085976Y-117598809D01*
X134609785Y-117694047D01*
X135419309Y-117360714D02*
X135657404Y-118027380D01*
X135895500Y-117360714D01*
X136276452Y-117932142D02*
X136324071Y-117979761D01*
X136276452Y-118027380D01*
X136228833Y-117979761D01*
X136276452Y-117932142D01*
X136276452Y-118027380D01*
X137466928Y-117741666D02*
X137943119Y-117741666D01*
X137371690Y-118027380D02*
X137705023Y-117027380D01*
X138038357Y-118027380D01*
X138276452Y-118408333D02*
X138324071Y-118360714D01*
X138419309Y-118217857D01*
X138466928Y-118122619D01*
X138514547Y-117979761D01*
X138562166Y-117741666D01*
X138562166Y-117551190D01*
X138514547Y-117313095D01*
X138466928Y-117170238D01*
X138419309Y-117075000D01*
X138324071Y-116932142D01*
X138276452Y-116884523D01*
X139390380Y-120999285D02*
X139390380Y-121570714D01*
X139390380Y-121285000D02*
X138390380Y-121285000D01*
X138533238Y-121380238D01*
X138628476Y-121475476D01*
X138676095Y-121570714D01*
%TO.C,D1*%
X155359904Y-117417380D02*
X155359904Y-116417380D01*
X155598000Y-116417380D01*
X155740857Y-116465000D01*
X155836095Y-116560238D01*
X155883714Y-116655476D01*
X155931333Y-116845952D01*
X155931333Y-116988809D01*
X155883714Y-117179285D01*
X155836095Y-117274523D01*
X155740857Y-117369761D01*
X155598000Y-117417380D01*
X155359904Y-117417380D01*
X156883714Y-117417380D02*
X156312285Y-117417380D01*
X156598000Y-117417380D02*
X156598000Y-116417380D01*
X156502761Y-116560238D01*
X156407523Y-116655476D01*
X156312285Y-116703095D01*
%TO.C,U1*%
X161568380Y-89971904D02*
X162377904Y-89971904D01*
X162473142Y-89924285D01*
X162520761Y-89876666D01*
X162568380Y-89781428D01*
X162568380Y-89590952D01*
X162520761Y-89495714D01*
X162473142Y-89448095D01*
X162377904Y-89400476D01*
X161568380Y-89400476D01*
X162568380Y-88400476D02*
X162568380Y-88971904D01*
X162568380Y-88686190D02*
X161568380Y-88686190D01*
X161711238Y-88781428D01*
X161806476Y-88876666D01*
X161854095Y-88971904D01*
X158250380Y-109061619D02*
X157774190Y-109394952D01*
X158250380Y-109633047D02*
X157250380Y-109633047D01*
X157250380Y-109252095D01*
X157298000Y-109156857D01*
X157345619Y-109109238D01*
X157440857Y-109061619D01*
X157583714Y-109061619D01*
X157678952Y-109109238D01*
X157726571Y-109156857D01*
X157774190Y-109252095D01*
X157774190Y-109633047D01*
X158202761Y-108680666D02*
X158250380Y-108537809D01*
X158250380Y-108299714D01*
X158202761Y-108204476D01*
X158155142Y-108156857D01*
X158059904Y-108109238D01*
X157964666Y-108109238D01*
X157869428Y-108156857D01*
X157821809Y-108204476D01*
X157774190Y-108299714D01*
X157726571Y-108490190D01*
X157678952Y-108585428D01*
X157631333Y-108633047D01*
X157536095Y-108680666D01*
X157440857Y-108680666D01*
X157345619Y-108633047D01*
X157298000Y-108585428D01*
X157250380Y-108490190D01*
X157250380Y-108252095D01*
X157298000Y-108109238D01*
X157250380Y-107823523D02*
X157250380Y-107252095D01*
X158250380Y-107537809D02*
X157250380Y-107537809D01*
X162330380Y-98726904D02*
X163139904Y-98726904D01*
X163235142Y-98679285D01*
X163282761Y-98631666D01*
X163330380Y-98536428D01*
X163330380Y-98345952D01*
X163282761Y-98250714D01*
X163235142Y-98203095D01*
X163139904Y-98155476D01*
X162330380Y-98155476D01*
X163282761Y-97726904D02*
X163330380Y-97584047D01*
X163330380Y-97345952D01*
X163282761Y-97250714D01*
X163235142Y-97203095D01*
X163139904Y-97155476D01*
X163044666Y-97155476D01*
X162949428Y-97203095D01*
X162901809Y-97250714D01*
X162854190Y-97345952D01*
X162806571Y-97536428D01*
X162758952Y-97631666D01*
X162711333Y-97679285D01*
X162616095Y-97726904D01*
X162520857Y-97726904D01*
X162425619Y-97679285D01*
X162378000Y-97631666D01*
X162330380Y-97536428D01*
X162330380Y-97298333D01*
X162378000Y-97155476D01*
X162806571Y-96393571D02*
X162854190Y-96250714D01*
X162901809Y-96203095D01*
X162997047Y-96155476D01*
X163139904Y-96155476D01*
X163235142Y-96203095D01*
X163282761Y-96250714D01*
X163330380Y-96345952D01*
X163330380Y-96726904D01*
X162330380Y-96726904D01*
X162330380Y-96393571D01*
X162378000Y-96298333D01*
X162425619Y-96250714D01*
X162520857Y-96203095D01*
X162616095Y-96203095D01*
X162711333Y-96250714D01*
X162758952Y-96298333D01*
X162806571Y-96393571D01*
X162806571Y-96726904D01*
%TO.C,J2*%
X176150380Y-120098333D02*
X176864666Y-120098333D01*
X177007523Y-120145952D01*
X177102761Y-120241190D01*
X177150380Y-120384047D01*
X177150380Y-120479285D01*
X176245619Y-119669761D02*
X176198000Y-119622142D01*
X176150380Y-119526904D01*
X176150380Y-119288809D01*
X176198000Y-119193571D01*
X176245619Y-119145952D01*
X176340857Y-119098333D01*
X176436095Y-119098333D01*
X176578952Y-119145952D01*
X177150380Y-119717380D01*
X177150380Y-119098333D01*
D11*
X172622600Y-113057833D02*
X172585866Y-113021100D01*
X172512400Y-112910900D01*
X172475666Y-112837433D01*
X172438933Y-112727233D01*
X172402200Y-112543566D01*
X172402200Y-112396633D01*
X172438933Y-112212966D01*
X172475666Y-112102766D01*
X172512400Y-112029300D01*
X172585866Y-111919100D01*
X172622600Y-111882366D01*
X172916466Y-112763966D02*
X172916466Y-111992566D01*
X173357266Y-112763966D01*
X173357266Y-111992566D01*
X173834800Y-112763966D02*
X173761333Y-112727233D01*
X173724600Y-112690500D01*
X173687866Y-112617033D01*
X173687866Y-112396633D01*
X173724600Y-112323166D01*
X173761333Y-112286433D01*
X173834800Y-112249700D01*
X173945000Y-112249700D01*
X174018466Y-112286433D01*
X174055200Y-112323166D01*
X174091933Y-112396633D01*
X174091933Y-112617033D01*
X174055200Y-112690500D01*
X174018466Y-112727233D01*
X173945000Y-112763966D01*
X173834800Y-112763966D01*
X174312333Y-112249700D02*
X174606200Y-112249700D01*
X174422533Y-111992566D02*
X174422533Y-112653766D01*
X174459266Y-112727233D01*
X174532733Y-112763966D01*
X174606200Y-112763966D01*
X175193933Y-112727233D02*
X175120466Y-112763966D01*
X174973533Y-112763966D01*
X174900066Y-112727233D01*
X174863333Y-112690500D01*
X174826600Y-112617033D01*
X174826600Y-112396633D01*
X174863333Y-112323166D01*
X174900066Y-112286433D01*
X174973533Y-112249700D01*
X175120466Y-112249700D01*
X175193933Y-112286433D01*
X175524533Y-112763966D02*
X175524533Y-111992566D01*
X175855133Y-112763966D02*
X175855133Y-112359900D01*
X175818400Y-112286433D01*
X175744933Y-112249700D01*
X175634733Y-112249700D01*
X175561266Y-112286433D01*
X175524533Y-112323166D01*
X176149000Y-113057833D02*
X176185733Y-113021100D01*
X176259200Y-112910900D01*
X176295933Y-112837433D01*
X176332666Y-112727233D01*
X176369400Y-112543566D01*
X176369400Y-112396633D01*
X176332666Y-112212966D01*
X176295933Y-112102766D01*
X176259200Y-112029300D01*
X176185733Y-111919100D01*
X176149000Y-111882366D01*
D10*
%TO.C,J1*%
X171800380Y-92848333D02*
X172514666Y-92848333D01*
X172657523Y-92895952D01*
X172752761Y-92991190D01*
X172800380Y-93134047D01*
X172800380Y-93229285D01*
X172800380Y-91848333D02*
X172800380Y-92419761D01*
X172800380Y-92134047D02*
X171800380Y-92134047D01*
X171943238Y-92229285D01*
X172038476Y-92324523D01*
X172086095Y-92419761D01*
D11*
X172598900Y-85857833D02*
X172562166Y-85821100D01*
X172488700Y-85710900D01*
X172451966Y-85637433D01*
X172415233Y-85527233D01*
X172378500Y-85343566D01*
X172378500Y-85196633D01*
X172415233Y-85012966D01*
X172451966Y-84902766D01*
X172488700Y-84829300D01*
X172562166Y-84719100D01*
X172598900Y-84682366D01*
X172892766Y-85563966D02*
X172892766Y-84792566D01*
X173333566Y-85563966D01*
X173333566Y-84792566D01*
X173811100Y-85563966D02*
X173737633Y-85527233D01*
X173700900Y-85490500D01*
X173664166Y-85417033D01*
X173664166Y-85196633D01*
X173700900Y-85123166D01*
X173737633Y-85086433D01*
X173811100Y-85049700D01*
X173921300Y-85049700D01*
X173994766Y-85086433D01*
X174031500Y-85123166D01*
X174068233Y-85196633D01*
X174068233Y-85417033D01*
X174031500Y-85490500D01*
X173994766Y-85527233D01*
X173921300Y-85563966D01*
X173811100Y-85563966D01*
X174288633Y-85049700D02*
X174582500Y-85049700D01*
X174398833Y-84792566D02*
X174398833Y-85453766D01*
X174435566Y-85527233D01*
X174509033Y-85563966D01*
X174582500Y-85563966D01*
X175170233Y-85527233D02*
X175096766Y-85563966D01*
X174949833Y-85563966D01*
X174876366Y-85527233D01*
X174839633Y-85490500D01*
X174802900Y-85417033D01*
X174802900Y-85196633D01*
X174839633Y-85123166D01*
X174876366Y-85086433D01*
X174949833Y-85049700D01*
X175096766Y-85049700D01*
X175170233Y-85086433D01*
X175500833Y-85563966D02*
X175500833Y-84792566D01*
X175831433Y-85563966D02*
X175831433Y-85159900D01*
X175794700Y-85086433D01*
X175721233Y-85049700D01*
X175611033Y-85049700D01*
X175537566Y-85086433D01*
X175500833Y-85123166D01*
X176125300Y-85857833D02*
X176162033Y-85821100D01*
X176235500Y-85710900D01*
X176272233Y-85637433D01*
X176308966Y-85527233D01*
X176345700Y-85343566D01*
X176345700Y-85196633D01*
X176308966Y-85012966D01*
X176272233Y-84902766D01*
X176235500Y-84829300D01*
X176162033Y-84719100D01*
X176125300Y-84682366D01*
D10*
%TO.C,P1*%
X157350380Y-122023095D02*
X156350380Y-122023095D01*
X156350380Y-121642142D01*
X156398000Y-121546904D01*
X156445619Y-121499285D01*
X156540857Y-121451666D01*
X156683714Y-121451666D01*
X156778952Y-121499285D01*
X156826571Y-121546904D01*
X156874190Y-121642142D01*
X156874190Y-122023095D01*
X157350380Y-120499285D02*
X157350380Y-121070714D01*
X157350380Y-120785000D02*
X156350380Y-120785000D01*
X156493238Y-120880238D01*
X156588476Y-120975476D01*
X156636095Y-121070714D01*
%TO.C,P2*%
X168854380Y-122023095D02*
X167854380Y-122023095D01*
X167854380Y-121642142D01*
X167902000Y-121546904D01*
X167949619Y-121499285D01*
X168044857Y-121451666D01*
X168187714Y-121451666D01*
X168282952Y-121499285D01*
X168330571Y-121546904D01*
X168378190Y-121642142D01*
X168378190Y-122023095D01*
X167949619Y-121070714D02*
X167902000Y-121023095D01*
X167854380Y-120927857D01*
X167854380Y-120689761D01*
X167902000Y-120594523D01*
X167949619Y-120546904D01*
X168044857Y-120499285D01*
X168140095Y-120499285D01*
X168282952Y-120546904D01*
X168854380Y-121118333D01*
X168854380Y-120499285D01*
%TO.C,P3*%
X141676380Y-79097095D02*
X140676380Y-79097095D01*
X140676380Y-78716142D01*
X140724000Y-78620904D01*
X140771619Y-78573285D01*
X140866857Y-78525666D01*
X141009714Y-78525666D01*
X141104952Y-78573285D01*
X141152571Y-78620904D01*
X141200190Y-78716142D01*
X141200190Y-79097095D01*
X140676380Y-78192333D02*
X140676380Y-77573285D01*
X141057333Y-77906619D01*
X141057333Y-77763761D01*
X141104952Y-77668523D01*
X141152571Y-77620904D01*
X141247809Y-77573285D01*
X141485904Y-77573285D01*
X141581142Y-77620904D01*
X141628761Y-77668523D01*
X141676380Y-77763761D01*
X141676380Y-78049476D01*
X141628761Y-78144714D01*
X141581142Y-78192333D01*
%TO.C,P4*%
X166060380Y-79097095D02*
X165060380Y-79097095D01*
X165060380Y-78716142D01*
X165108000Y-78620904D01*
X165155619Y-78573285D01*
X165250857Y-78525666D01*
X165393714Y-78525666D01*
X165488952Y-78573285D01*
X165536571Y-78620904D01*
X165584190Y-78716142D01*
X165584190Y-79097095D01*
X165393714Y-77668523D02*
X166060380Y-77668523D01*
X165012761Y-77906619D02*
X165727047Y-78144714D01*
X165727047Y-77525666D01*
%TO.C,TP7*%
X133548000Y-123976904D02*
X133500380Y-124072142D01*
X133500380Y-124215000D01*
X133548000Y-124357857D01*
X133643238Y-124453095D01*
X133738476Y-124500714D01*
X133928952Y-124548333D01*
X134071809Y-124548333D01*
X134262285Y-124500714D01*
X134357523Y-124453095D01*
X134452761Y-124357857D01*
X134500380Y-124215000D01*
X134500380Y-124119761D01*
X134452761Y-123976904D01*
X134405142Y-123929285D01*
X134071809Y-123929285D01*
X134071809Y-124119761D01*
X134500380Y-123500714D02*
X133500380Y-123500714D01*
X134500380Y-122929285D01*
X133500380Y-122929285D01*
X134500380Y-122453095D02*
X133500380Y-122453095D01*
X133500380Y-122215000D01*
X133548000Y-122072142D01*
X133643238Y-121976904D01*
X133738476Y-121929285D01*
X133928952Y-121881666D01*
X134071809Y-121881666D01*
X134262285Y-121929285D01*
X134357523Y-121976904D01*
X134452761Y-122072142D01*
X134500380Y-122215000D01*
X134500380Y-122453095D01*
%TO.C,J4*%
X171450380Y-105398333D02*
X172164666Y-105398333D01*
X172307523Y-105445952D01*
X172402761Y-105541190D01*
X172450380Y-105684047D01*
X172450380Y-105779285D01*
X171783714Y-104493571D02*
X172450380Y-104493571D01*
X171402761Y-104731666D02*
X172117047Y-104969761D01*
X172117047Y-104350714D01*
%TO.C,TP3*%
X168755142Y-118903095D02*
X168802761Y-118950714D01*
X168850380Y-119093571D01*
X168850380Y-119188809D01*
X168802761Y-119331666D01*
X168707523Y-119426904D01*
X168612285Y-119474523D01*
X168421809Y-119522142D01*
X168278952Y-119522142D01*
X168088476Y-119474523D01*
X167993238Y-119426904D01*
X167898000Y-119331666D01*
X167850380Y-119188809D01*
X167850380Y-119093571D01*
X167898000Y-118950714D01*
X167945619Y-118903095D01*
X167850380Y-118617380D02*
X167850380Y-118045952D01*
X168850380Y-118331666D02*
X167850380Y-118331666D01*
X168850380Y-117236428D02*
X168850380Y-117712619D01*
X167850380Y-117712619D01*
X167945619Y-116950714D02*
X167898000Y-116903095D01*
X167850380Y-116807857D01*
X167850380Y-116569761D01*
X167898000Y-116474523D01*
X167945619Y-116426904D01*
X168040857Y-116379285D01*
X168136095Y-116379285D01*
X168278952Y-116426904D01*
X168850380Y-116998333D01*
X168850380Y-116379285D01*
X168945619Y-116188809D02*
X168945619Y-115426904D01*
X168802761Y-115236428D02*
X168850380Y-115093571D01*
X168850380Y-114855476D01*
X168802761Y-114760238D01*
X168755142Y-114712619D01*
X168659904Y-114665000D01*
X168564666Y-114665000D01*
X168469428Y-114712619D01*
X168421809Y-114760238D01*
X168374190Y-114855476D01*
X168326571Y-115045952D01*
X168278952Y-115141190D01*
X168231333Y-115188809D01*
X168136095Y-115236428D01*
X168040857Y-115236428D01*
X167945619Y-115188809D01*
X167898000Y-115141190D01*
X167850380Y-115045952D01*
X167850380Y-114807857D01*
X167898000Y-114665000D01*
X168850380Y-114236428D02*
X167850380Y-114236428D01*
X167850380Y-113998333D01*
X167898000Y-113855476D01*
X167993238Y-113760238D01*
X168088476Y-113712619D01*
X168278952Y-113665000D01*
X168421809Y-113665000D01*
X168612285Y-113712619D01*
X168707523Y-113760238D01*
X168802761Y-113855476D01*
X168850380Y-113998333D01*
X168850380Y-114236428D01*
X168564666Y-113284047D02*
X168564666Y-112807857D01*
X168850380Y-113379285D02*
X167850380Y-113045952D01*
X168850380Y-112712619D01*
%TO.C,TP1*%
X168855142Y-110379285D02*
X168902761Y-110426904D01*
X168950380Y-110569761D01*
X168950380Y-110665000D01*
X168902761Y-110807857D01*
X168807523Y-110903095D01*
X168712285Y-110950714D01*
X168521809Y-110998333D01*
X168378952Y-110998333D01*
X168188476Y-110950714D01*
X168093238Y-110903095D01*
X167998000Y-110807857D01*
X167950380Y-110665000D01*
X167950380Y-110569761D01*
X167998000Y-110426904D01*
X168045619Y-110379285D01*
X167950380Y-110093571D02*
X167950380Y-109522142D01*
X168950380Y-109807857D02*
X167950380Y-109807857D01*
X168950380Y-108712619D02*
X168950380Y-109188809D01*
X167950380Y-109188809D01*
X168045619Y-108426904D02*
X167998000Y-108379285D01*
X167950380Y-108284047D01*
X167950380Y-108045952D01*
X167998000Y-107950714D01*
X168045619Y-107903095D01*
X168140857Y-107855476D01*
X168236095Y-107855476D01*
X168378952Y-107903095D01*
X168950380Y-108474523D01*
X168950380Y-107855476D01*
X169045619Y-107665000D02*
X169045619Y-106903095D01*
X168902761Y-106712619D02*
X168950380Y-106569761D01*
X168950380Y-106331666D01*
X168902761Y-106236428D01*
X168855142Y-106188809D01*
X168759904Y-106141190D01*
X168664666Y-106141190D01*
X168569428Y-106188809D01*
X168521809Y-106236428D01*
X168474190Y-106331666D01*
X168426571Y-106522142D01*
X168378952Y-106617380D01*
X168331333Y-106665000D01*
X168236095Y-106712619D01*
X168140857Y-106712619D01*
X168045619Y-106665000D01*
X167998000Y-106617380D01*
X167950380Y-106522142D01*
X167950380Y-106284047D01*
X167998000Y-106141190D01*
X168855142Y-105141190D02*
X168902761Y-105188809D01*
X168950380Y-105331666D01*
X168950380Y-105426904D01*
X168902761Y-105569761D01*
X168807523Y-105665000D01*
X168712285Y-105712619D01*
X168521809Y-105760238D01*
X168378952Y-105760238D01*
X168188476Y-105712619D01*
X168093238Y-105665000D01*
X167998000Y-105569761D01*
X167950380Y-105426904D01*
X167950380Y-105331666D01*
X167998000Y-105188809D01*
X168045619Y-105141190D01*
X168950380Y-104236428D02*
X168950380Y-104712619D01*
X167950380Y-104712619D01*
%TO.C,J3*%
X121250380Y-93498333D02*
X121964666Y-93498333D01*
X122107523Y-93545952D01*
X122202761Y-93641190D01*
X122250380Y-93784047D01*
X122250380Y-93879285D01*
X121250380Y-93117380D02*
X121250380Y-92498333D01*
X121631333Y-92831666D01*
X121631333Y-92688809D01*
X121678952Y-92593571D01*
X121726571Y-92545952D01*
X121821809Y-92498333D01*
X122059904Y-92498333D01*
X122155142Y-92545952D01*
X122202761Y-92593571D01*
X122250380Y-92688809D01*
X122250380Y-92974523D01*
X122202761Y-93069761D01*
X122155142Y-93117380D01*
%TO.C,JP1*%
X144902761Y-121026904D02*
X145169428Y-121826904D01*
X145436095Y-121026904D01*
X146045619Y-121788809D02*
X145969428Y-121826904D01*
X145817047Y-121826904D01*
X145740857Y-121788809D01*
X145702761Y-121750714D01*
X145664666Y-121674523D01*
X145664666Y-121445952D01*
X145702761Y-121369761D01*
X145740857Y-121331666D01*
X145817047Y-121293571D01*
X145969428Y-121293571D01*
X146045619Y-121331666D01*
X146731333Y-121788809D02*
X146655142Y-121826904D01*
X146502761Y-121826904D01*
X146426571Y-121788809D01*
X146388476Y-121750714D01*
X146350380Y-121674523D01*
X146350380Y-121445952D01*
X146388476Y-121369761D01*
X146426571Y-121331666D01*
X146502761Y-121293571D01*
X146655142Y-121293571D01*
X146731333Y-121331666D01*
X147074190Y-121522142D02*
X147683714Y-121522142D01*
X148026571Y-121788809D02*
X148140857Y-121826904D01*
X148331333Y-121826904D01*
X148407523Y-121788809D01*
X148445619Y-121750714D01*
X148483714Y-121674523D01*
X148483714Y-121598333D01*
X148445619Y-121522142D01*
X148407523Y-121484047D01*
X148331333Y-121445952D01*
X148178952Y-121407857D01*
X148102761Y-121369761D01*
X148064666Y-121331666D01*
X148026571Y-121255476D01*
X148026571Y-121179285D01*
X148064666Y-121103095D01*
X148102761Y-121065000D01*
X148178952Y-121026904D01*
X148369428Y-121026904D01*
X148483714Y-121065000D01*
X149131333Y-121788809D02*
X149055142Y-121826904D01*
X148902761Y-121826904D01*
X148826571Y-121788809D01*
X148788476Y-121712619D01*
X148788476Y-121407857D01*
X148826571Y-121331666D01*
X148902761Y-121293571D01*
X149055142Y-121293571D01*
X149131333Y-121331666D01*
X149169428Y-121407857D01*
X149169428Y-121484047D01*
X148788476Y-121560238D01*
X149626571Y-121826904D02*
X149550380Y-121788809D01*
X149512285Y-121712619D01*
X149512285Y-121026904D01*
X150236095Y-121788809D02*
X150159904Y-121826904D01*
X150007523Y-121826904D01*
X149931333Y-121788809D01*
X149893238Y-121712619D01*
X149893238Y-121407857D01*
X149931333Y-121331666D01*
X150007523Y-121293571D01*
X150159904Y-121293571D01*
X150236095Y-121331666D01*
X150274190Y-121407857D01*
X150274190Y-121484047D01*
X149893238Y-121560238D01*
X150959904Y-121788809D02*
X150883714Y-121826904D01*
X150731333Y-121826904D01*
X150655142Y-121788809D01*
X150617047Y-121750714D01*
X150578952Y-121674523D01*
X150578952Y-121445952D01*
X150617047Y-121369761D01*
X150655142Y-121331666D01*
X150731333Y-121293571D01*
X150883714Y-121293571D01*
X150959904Y-121331666D01*
X151188476Y-121293571D02*
X151493238Y-121293571D01*
X151302761Y-121026904D02*
X151302761Y-121712619D01*
X151340857Y-121788809D01*
X151417047Y-121826904D01*
X151493238Y-121826904D01*
X142350380Y-120441190D02*
X142350380Y-119822142D01*
X142731333Y-120155476D01*
X142731333Y-120012619D01*
X142778952Y-119917380D01*
X142826571Y-119869761D01*
X142921809Y-119822142D01*
X143159904Y-119822142D01*
X143255142Y-119869761D01*
X143302761Y-119917380D01*
X143350380Y-120012619D01*
X143350380Y-120298333D01*
X143302761Y-120393571D01*
X143255142Y-120441190D01*
X143255142Y-119393571D02*
X143302761Y-119345952D01*
X143350380Y-119393571D01*
X143302761Y-119441190D01*
X143255142Y-119393571D01*
X143350380Y-119393571D01*
X142350380Y-119012619D02*
X142350380Y-118393571D01*
X142731333Y-118726904D01*
X142731333Y-118584047D01*
X142778952Y-118488809D01*
X142826571Y-118441190D01*
X142921809Y-118393571D01*
X143159904Y-118393571D01*
X143255142Y-118441190D01*
X143302761Y-118488809D01*
X143350380Y-118584047D01*
X143350380Y-118869761D01*
X143302761Y-118965000D01*
X143255142Y-119012619D01*
X142350380Y-118107857D02*
X143350380Y-117774523D01*
X142350380Y-117441190D01*
X152550380Y-119255476D02*
X152550380Y-119731666D01*
X153026571Y-119779285D01*
X152978952Y-119731666D01*
X152931333Y-119636428D01*
X152931333Y-119398333D01*
X152978952Y-119303095D01*
X153026571Y-119255476D01*
X153121809Y-119207857D01*
X153359904Y-119207857D01*
X153455142Y-119255476D01*
X153502761Y-119303095D01*
X153550380Y-119398333D01*
X153550380Y-119636428D01*
X153502761Y-119731666D01*
X153455142Y-119779285D01*
X152550380Y-118922142D02*
X153550380Y-118588809D01*
X152550380Y-118255476D01*
%TO.C,TP5*%
X162855142Y-114831666D02*
X162902761Y-114879285D01*
X162950380Y-115022142D01*
X162950380Y-115117380D01*
X162902761Y-115260238D01*
X162807523Y-115355476D01*
X162712285Y-115403095D01*
X162521809Y-115450714D01*
X162378952Y-115450714D01*
X162188476Y-115403095D01*
X162093238Y-115355476D01*
X161998000Y-115260238D01*
X161950380Y-115117380D01*
X161950380Y-115022142D01*
X161998000Y-114879285D01*
X162045619Y-114831666D01*
X161950380Y-114545952D02*
X161950380Y-113974523D01*
X162950380Y-114260238D02*
X161950380Y-114260238D01*
X162950380Y-113165000D02*
X162950380Y-113641190D01*
X161950380Y-113641190D01*
X162045619Y-112879285D02*
X161998000Y-112831666D01*
X161950380Y-112736428D01*
X161950380Y-112498333D01*
X161998000Y-112403095D01*
X162045619Y-112355476D01*
X162140857Y-112307857D01*
X162236095Y-112307857D01*
X162378952Y-112355476D01*
X162950380Y-112926904D01*
X162950380Y-112307857D01*
X163045619Y-112117380D02*
X163045619Y-111355476D01*
X162950380Y-111117380D02*
X161950380Y-111117380D01*
X161950380Y-110879285D01*
X161998000Y-110736428D01*
X162093238Y-110641190D01*
X162188476Y-110593571D01*
X162378952Y-110545952D01*
X162521809Y-110545952D01*
X162712285Y-110593571D01*
X162807523Y-110641190D01*
X162902761Y-110736428D01*
X162950380Y-110879285D01*
X162950380Y-111117380D01*
X162426571Y-110117380D02*
X162426571Y-109784047D01*
X162950380Y-109641190D02*
X162950380Y-110117380D01*
X161950380Y-110117380D01*
X161950380Y-109641190D01*
X161950380Y-109355476D02*
X161950380Y-108784047D01*
X162950380Y-109069761D02*
X161950380Y-109069761D01*
%TO.C,R2*%
X169875380Y-95831666D02*
X169399190Y-96165000D01*
X169875380Y-96403095D02*
X168875380Y-96403095D01*
X168875380Y-96022142D01*
X168923000Y-95926904D01*
X168970619Y-95879285D01*
X169065857Y-95831666D01*
X169208714Y-95831666D01*
X169303952Y-95879285D01*
X169351571Y-95926904D01*
X169399190Y-96022142D01*
X169399190Y-96403095D01*
X168970619Y-95450714D02*
X168923000Y-95403095D01*
X168875380Y-95307857D01*
X168875380Y-95069761D01*
X168923000Y-94974523D01*
X168970619Y-94926904D01*
X169065857Y-94879285D01*
X169161095Y-94879285D01*
X169303952Y-94926904D01*
X169875380Y-95498333D01*
X169875380Y-94879285D01*
%TO.C,R1*%
X169875380Y-102231666D02*
X169399190Y-102565000D01*
X169875380Y-102803095D02*
X168875380Y-102803095D01*
X168875380Y-102422142D01*
X168923000Y-102326904D01*
X168970619Y-102279285D01*
X169065857Y-102231666D01*
X169208714Y-102231666D01*
X169303952Y-102279285D01*
X169351571Y-102326904D01*
X169399190Y-102422142D01*
X169399190Y-102803095D01*
X169875380Y-101279285D02*
X169875380Y-101850714D01*
X169875380Y-101565000D02*
X168875380Y-101565000D01*
X169018238Y-101660238D01*
X169113476Y-101755476D01*
X169161095Y-101850714D01*
D12*
%TO.C,D1*%
X153848000Y-117965000D02*
X153848000Y-119965000D01*
X153848000Y-119965000D02*
X157748000Y-119965000D01*
X153848000Y-117965000D02*
X157748000Y-117965000D01*
%TO.C,U1*%
X157798000Y-102545000D02*
X157798000Y-92385000D01*
X126048000Y-82225000D02*
X160338000Y-82225000D01*
X160338000Y-102545000D02*
X157798000Y-102545000D01*
X126048000Y-112705000D02*
X155258000Y-112705000D01*
X155258000Y-112705000D02*
X155258000Y-110165000D01*
X160338000Y-110165000D02*
X160338000Y-82225000D01*
X160338000Y-102545000D02*
X166688000Y-102545000D01*
X123508000Y-84765000D02*
X126048000Y-82225000D01*
X157798000Y-92385000D02*
X160338000Y-92385000D01*
X123508000Y-84765000D02*
X123508000Y-108895000D01*
X166688000Y-92385000D02*
X160338000Y-92385000D01*
X123508000Y-110165000D02*
X126048000Y-112705000D01*
X155258000Y-110165000D02*
X160338000Y-110165000D01*
X123508000Y-110165000D02*
X123508000Y-108895000D01*
X166688000Y-102545000D02*
X166688000Y-92385000D01*
D13*
X159068000Y-111435000D02*
X156528000Y-111435000D01*
X156528000Y-111435000D02*
X156528000Y-110165000D01*
X156528000Y-110165000D02*
X159068000Y-110165000D01*
X159068000Y-110165000D02*
X159068000Y-111435000D01*
G36*
X159068000Y-111435000D02*
G01*
X156528000Y-111435000D01*
X156528000Y-110165000D01*
X159068000Y-110165000D01*
X159068000Y-111435000D01*
G37*
X159068000Y-111435000D02*
X156528000Y-111435000D01*
X156528000Y-110165000D01*
X159068000Y-110165000D01*
X159068000Y-111435000D01*
D12*
%TO.C,J2*%
X170296400Y-113431000D02*
X171007600Y-113431000D01*
X170296400Y-111424400D02*
X170296400Y-113431000D01*
X171033000Y-111424400D02*
X170296400Y-111424400D01*
%TO.C,J1*%
X170272700Y-86231000D02*
X170983900Y-86231000D01*
X170272700Y-84224400D02*
X170272700Y-86231000D01*
X171009300Y-84224400D02*
X170272700Y-84224400D01*
D10*
%TO.C,P1*%
X157988000Y-125095000D02*
X157988000Y-122555000D01*
X140208000Y-125095000D02*
X157988000Y-125095000D01*
X157988000Y-122555000D02*
X140208000Y-122555000D01*
X138938000Y-122275000D02*
X137388000Y-122275000D01*
X137388000Y-122275000D02*
X137388000Y-125375000D01*
X137388000Y-125375000D02*
X138938000Y-125375000D01*
X140208000Y-125095000D02*
X140208000Y-122555000D01*
%TO.C,P2*%
X163068000Y-125095000D02*
X163068000Y-122555000D01*
X161798000Y-122275000D02*
X160248000Y-122275000D01*
X175768000Y-122555000D02*
X163068000Y-122555000D01*
X163068000Y-125095000D02*
X175768000Y-125095000D01*
X175768000Y-125095000D02*
X175768000Y-122555000D01*
X160248000Y-122275000D02*
X160248000Y-125375000D01*
X160248000Y-125375000D02*
X161798000Y-125375000D01*
%TO.C,P3*%
X128244000Y-74015000D02*
X128244000Y-77115000D01*
X131064000Y-76835000D02*
X153924000Y-76835000D01*
X153924000Y-76835000D02*
X153924000Y-74295000D01*
X153924000Y-74295000D02*
X131064000Y-74295000D01*
X129794000Y-74015000D02*
X128244000Y-74015000D01*
X128244000Y-77115000D02*
X129794000Y-77115000D01*
X131064000Y-76835000D02*
X131064000Y-74295000D01*
%TO.C,P4*%
X175768000Y-74295000D02*
X157988000Y-74295000D01*
X155168000Y-77115000D02*
X156718000Y-77115000D01*
X157988000Y-76835000D02*
X175768000Y-76835000D01*
X157988000Y-76835000D02*
X157988000Y-74295000D01*
X156718000Y-74015000D02*
X155168000Y-74015000D01*
X175768000Y-76835000D02*
X175768000Y-74295000D01*
X155168000Y-74015000D02*
X155168000Y-77115000D01*
%TO.C,P5*%
X127254000Y-123825000D02*
G75*
G03*
X127254000Y-123825000I-2286000J0D01*
G01*
%TO.C,P7*%
X128524000Y-75565000D02*
G75*
G03*
X128524000Y-75565000I-2286000J0D01*
G01*
%TO.C,TP7*%
X132848000Y-123065000D02*
G75*
G03*
X132848000Y-123065000I-1750000J0D01*
G01*
D12*
%TO.C,J4*%
X174073000Y-94270000D02*
X174973000Y-94270000D01*
X177673000Y-94270000D02*
X180403000Y-94270000D01*
X174073000Y-103460000D02*
X174973000Y-103460000D01*
X177673000Y-103460000D02*
X180403000Y-103460000D01*
X170993000Y-103340000D02*
X170993000Y-94390000D01*
X180403000Y-103460000D02*
X180403000Y-94270000D01*
%TO.C,TP3*%
X167148000Y-116965000D02*
G75*
G03*
X167148000Y-116965000I-1750000J0D01*
G01*
%TO.C,TP1*%
X167248000Y-107165000D02*
G75*
G03*
X167248000Y-107165000I-1750000J0D01*
G01*
%TO.C,J3*%
X112665500Y-93705000D02*
X119165500Y-93705000D01*
X112665500Y-106015000D02*
X111355500Y-106015000D01*
X111355500Y-92405000D02*
X120475500Y-92405000D01*
X112665500Y-101915000D02*
X112665500Y-93705000D01*
X119165500Y-93705000D02*
X119165500Y-114225000D01*
X119165500Y-114225000D02*
X112665500Y-114225000D01*
X111355500Y-101915000D02*
X112665500Y-101915000D01*
X111355500Y-115525000D02*
X111355500Y-92405000D01*
X109965500Y-98115000D02*
X110965500Y-97615000D01*
X110965500Y-97615000D02*
X109965500Y-97115000D01*
X120475500Y-92405000D02*
X120475500Y-115525000D01*
X109965500Y-97115000D02*
X109965500Y-98115000D01*
X112665500Y-114225000D02*
X112665500Y-106015000D01*
X112665500Y-106015000D02*
X112665500Y-106015000D01*
X120475500Y-115525000D02*
X111355500Y-115525000D01*
%TO.C,JP1*%
X150598000Y-117735000D02*
X151928000Y-117735000D01*
X149328000Y-117735000D02*
X144188000Y-117735000D01*
X149328000Y-120395000D02*
X144188000Y-120395000D01*
X151928000Y-117735000D02*
X151928000Y-119065000D01*
X144188000Y-117735000D02*
X144188000Y-120395000D01*
X149328000Y-117735000D02*
X149328000Y-120395000D01*
%TO.C,TP5*%
X167248000Y-112265000D02*
G75*
G03*
X167248000Y-112265000I-1750000J0D01*
G01*
%TO.C,R2*%
X168735258Y-97042500D02*
X168260742Y-97042500D01*
X168735258Y-98087500D02*
X168260742Y-98087500D01*
%TO.C,R1*%
X168735258Y-99642500D02*
X168260742Y-99642500D01*
X168735258Y-100687500D02*
X168260742Y-100687500D01*
D14*
%TO.C,REF\u002A\u002A*%
X118329069Y-122120814D02*
X117884445Y-122204635D01*
X117884445Y-122204635D02*
X117756947Y-122513920D01*
X117756947Y-122513920D02*
X117629449Y-122823206D01*
X117629449Y-122823206D02*
X117881754Y-123194246D01*
X117881754Y-123194246D02*
X117952004Y-123298157D01*
X117952004Y-123298157D02*
X118014728Y-123392087D01*
X118014728Y-123392087D02*
X118067062Y-123471652D01*
X118067062Y-123471652D02*
X118106143Y-123532470D01*
X118106143Y-123532470D02*
X118129107Y-123570157D01*
X118129107Y-123570157D02*
X118134058Y-123580421D01*
X118134058Y-123580421D02*
X118121324Y-123598910D01*
X118121324Y-123598910D02*
X118086118Y-123638420D01*
X118086118Y-123638420D02*
X118032938Y-123694522D01*
X118032938Y-123694522D02*
X117966282Y-123762787D01*
X117966282Y-123762787D02*
X117890646Y-123838786D01*
X117890646Y-123838786D02*
X117810528Y-123918092D01*
X117810528Y-123918092D02*
X117730426Y-123996275D01*
X117730426Y-123996275D02*
X117654836Y-124068907D01*
X117654836Y-124068907D02*
X117588255Y-124131559D01*
X117588255Y-124131559D02*
X117535182Y-124179803D01*
X117535182Y-124179803D02*
X117500113Y-124209210D01*
X117500113Y-124209210D02*
X117488377Y-124216241D01*
X117488377Y-124216241D02*
X117466740Y-124206123D01*
X117466740Y-124206123D02*
X117419338Y-124177759D01*
X117419338Y-124177759D02*
X117350807Y-124134129D01*
X117350807Y-124134129D02*
X117265785Y-124078218D01*
X117265785Y-124078218D02*
X117168907Y-124013006D01*
X117168907Y-124013006D02*
X117113650Y-123975219D01*
X117113650Y-123975219D02*
X117012752Y-123906343D01*
X117012752Y-123906343D02*
X116921701Y-123845140D01*
X116921701Y-123845140D02*
X116845030Y-123794578D01*
X116845030Y-123794578D02*
X116787272Y-123757628D01*
X116787272Y-123757628D02*
X116752957Y-123737258D01*
X116752957Y-123737258D02*
X116745746Y-123734197D01*
X116745746Y-123734197D02*
X116725252Y-123741136D01*
X116725252Y-123741136D02*
X116677487Y-123760051D01*
X116677487Y-123760051D02*
X116609168Y-123788087D01*
X116609168Y-123788087D02*
X116527011Y-123822391D01*
X116527011Y-123822391D02*
X116437730Y-123860109D01*
X116437730Y-123860109D02*
X116348042Y-123898387D01*
X116348042Y-123898387D02*
X116264662Y-123934370D01*
X116264662Y-123934370D02*
X116194306Y-123965206D01*
X116194306Y-123965206D02*
X116143690Y-123988039D01*
X116143690Y-123988039D02*
X116119529Y-124000017D01*
X116119529Y-124000017D02*
X116118578Y-124000724D01*
X116118578Y-124000724D02*
X116113964Y-124019531D01*
X116113964Y-124019531D02*
X116103672Y-124069618D01*
X116103672Y-124069618D02*
X116088713Y-124145793D01*
X116088713Y-124145793D02*
X116070099Y-124242865D01*
X116070099Y-124242865D02*
X116048841Y-124355643D01*
X116048841Y-124355643D02*
X116036582Y-124421442D01*
X116036582Y-124421442D02*
X116013638Y-124541950D01*
X116013638Y-124541950D02*
X115991805Y-124650797D01*
X115991805Y-124650797D02*
X115972278Y-124742476D01*
X115972278Y-124742476D02*
X115956252Y-124811481D01*
X115956252Y-124811481D02*
X115944921Y-124852304D01*
X115944921Y-124852304D02*
X115941326Y-124860511D01*
X115941326Y-124860511D02*
X115916994Y-124868548D01*
X115916994Y-124868548D02*
X115862041Y-124875033D01*
X115862041Y-124875033D02*
X115782892Y-124879970D01*
X115782892Y-124879970D02*
X115685974Y-124883364D01*
X115685974Y-124883364D02*
X115577713Y-124885218D01*
X115577713Y-124885218D02*
X115464535Y-124885538D01*
X115464535Y-124885538D02*
X115352865Y-124884327D01*
X115352865Y-124884327D02*
X115249132Y-124881590D01*
X115249132Y-124881590D02*
X115159759Y-124877331D01*
X115159759Y-124877331D02*
X115091174Y-124871555D01*
X115091174Y-124871555D02*
X115049803Y-124864267D01*
X115049803Y-124864267D02*
X115041190Y-124859895D01*
X115041190Y-124859895D02*
X115030867Y-124833764D01*
X115030867Y-124833764D02*
X115016108Y-124778393D01*
X115016108Y-124778393D02*
X114998648Y-124701107D01*
X114998648Y-124701107D02*
X114980220Y-124609230D01*
X114980220Y-124609230D02*
X114974259Y-124577158D01*
X114974259Y-124577158D02*
X114945934Y-124422524D01*
X114945934Y-124422524D02*
X114923124Y-124300375D01*
X114923124Y-124300375D02*
X114904920Y-124206673D01*
X114904920Y-124206673D02*
X114890417Y-124137384D01*
X114890417Y-124137384D02*
X114878708Y-124088471D01*
X114878708Y-124088471D02*
X114868885Y-124055897D01*
X114868885Y-124055897D02*
X114860044Y-124035628D01*
X114860044Y-124035628D02*
X114851276Y-124023626D01*
X114851276Y-124023626D02*
X114849543Y-124021947D01*
X114849543Y-124021947D02*
X114821629Y-124005184D01*
X114821629Y-124005184D02*
X114767305Y-123979614D01*
X114767305Y-123979614D02*
X114693223Y-123947788D01*
X114693223Y-123947788D02*
X114606035Y-123912260D01*
X114606035Y-123912260D02*
X114512392Y-123875583D01*
X114512392Y-123875583D02*
X114418948Y-123840311D01*
X114418948Y-123840311D02*
X114332353Y-123808996D01*
X114332353Y-123808996D02*
X114259260Y-123784193D01*
X114259260Y-123784193D02*
X114206322Y-123768454D01*
X114206322Y-123768454D02*
X114180189Y-123764332D01*
X114180189Y-123764332D02*
X114179274Y-123764676D01*
X114179274Y-123764676D02*
X114157914Y-123778641D01*
X114157914Y-123778641D02*
X114110916Y-123810322D01*
X114110916Y-123810322D02*
X114043173Y-123856391D01*
X114043173Y-123856391D02*
X113959577Y-123913518D01*
X113959577Y-123913518D02*
X113865018Y-123978373D01*
X113865018Y-123978373D02*
X113838146Y-123996843D01*
X113838146Y-123996843D02*
X113740725Y-124062699D01*
X113740725Y-124062699D02*
X113651837Y-124120650D01*
X113651837Y-124120650D02*
X113576588Y-124167538D01*
X113576588Y-124167538D02*
X113520080Y-124200207D01*
X113520080Y-124200207D02*
X113487419Y-124215500D01*
X113487419Y-124215500D02*
X113483407Y-124216241D01*
X113483407Y-124216241D02*
X113462316Y-124203392D01*
X113462316Y-124203392D02*
X113420536Y-124167888D01*
X113420536Y-124167888D02*
X113362555Y-124114293D01*
X113362555Y-124114293D02*
X113292865Y-124047171D01*
X113292865Y-124047171D02*
X113215955Y-123971087D01*
X113215955Y-123971087D02*
X113136317Y-123890604D01*
X113136317Y-123890604D02*
X113058439Y-123810287D01*
X113058439Y-123810287D02*
X112986814Y-123734699D01*
X112986814Y-123734699D02*
X112925930Y-123668405D01*
X112925930Y-123668405D02*
X112880279Y-123615969D01*
X112880279Y-123615969D02*
X112854350Y-123581955D01*
X112854350Y-123581955D02*
X112850117Y-123572545D01*
X112850117Y-123572545D02*
X112860088Y-123550643D01*
X112860088Y-123550643D02*
X112886980Y-123505800D01*
X112886980Y-123505800D02*
X112926264Y-123445321D01*
X112926264Y-123445321D02*
X112957883Y-123398789D01*
X112957883Y-123398789D02*
X113015902Y-123314475D01*
X113015902Y-123314475D02*
X113084216Y-123214626D01*
X113084216Y-123214626D02*
X113152421Y-123114473D01*
X113152421Y-123114473D02*
X113188925Y-123060627D01*
X113188925Y-123060627D02*
X113312200Y-122878371D01*
X113312200Y-122878371D02*
X113229480Y-122725381D01*
X113229480Y-122725381D02*
X113193241Y-122655682D01*
X113193241Y-122655682D02*
X113165074Y-122596414D01*
X113165074Y-122596414D02*
X113149009Y-122556311D01*
X113149009Y-122556311D02*
X113146774Y-122546103D01*
X113146774Y-122546103D02*
X113163278Y-122533829D01*
X113163278Y-122533829D02*
X113209918Y-122509613D01*
X113209918Y-122509613D02*
X113282391Y-122475263D01*
X113282391Y-122475263D02*
X113376394Y-122432588D01*
X113376394Y-122432588D02*
X113487626Y-122383394D01*
X113487626Y-122383394D02*
X113611785Y-122329490D01*
X113611785Y-122329490D02*
X113744568Y-122272684D01*
X113744568Y-122272684D02*
X113881673Y-122214782D01*
X113881673Y-122214782D02*
X114018798Y-122157593D01*
X114018798Y-122157593D02*
X114151642Y-122102924D01*
X114151642Y-122102924D02*
X114275902Y-122052584D01*
X114275902Y-122052584D02*
X114387275Y-122008380D01*
X114387275Y-122008380D02*
X114481461Y-121972119D01*
X114481461Y-121972119D02*
X114554156Y-121945609D01*
X114554156Y-121945609D02*
X114601059Y-121930658D01*
X114601059Y-121930658D02*
X114617167Y-121928254D01*
X114617167Y-121928254D02*
X114637714Y-121947311D01*
X114637714Y-121947311D02*
X114671067Y-121989036D01*
X114671067Y-121989036D02*
X114710298Y-122044706D01*
X114710298Y-122044706D02*
X114713401Y-122049378D01*
X114713401Y-122049378D02*
X114828577Y-122193264D01*
X114828577Y-122193264D02*
X114962947Y-122309283D01*
X114962947Y-122309283D02*
X115112216Y-122396430D01*
X115112216Y-122396430D02*
X115272087Y-122453699D01*
X115272087Y-122453699D02*
X115438263Y-122480086D01*
X115438263Y-122480086D02*
X115606448Y-122474585D01*
X115606448Y-122474585D02*
X115772345Y-122436190D01*
X115772345Y-122436190D02*
X115931658Y-122363895D01*
X115931658Y-122363895D02*
X115966513Y-122342626D01*
X115966513Y-122342626D02*
X116107263Y-122231996D01*
X116107263Y-122231996D02*
X116220286Y-122101302D01*
X116220286Y-122101302D02*
X116304997Y-121955064D01*
X116304997Y-121955064D02*
X116360806Y-121797808D01*
X116360806Y-121797808D02*
X116387126Y-121634057D01*
X116387126Y-121634057D02*
X116383370Y-121468333D01*
X116383370Y-121468333D02*
X116348950Y-121305162D01*
X116348950Y-121305162D02*
X116283277Y-121149065D01*
X116283277Y-121149065D02*
X116185765Y-121004567D01*
X116185765Y-121004567D02*
X116146187Y-120959869D01*
X116146187Y-120959869D02*
X116022297Y-120846112D01*
X116022297Y-120846112D02*
X115891876Y-120763218D01*
X115891876Y-120763218D02*
X115745685Y-120706356D01*
X115745685Y-120706356D02*
X115600912Y-120674687D01*
X115600912Y-120674687D02*
X115438140Y-120666869D01*
X115438140Y-120666869D02*
X115274560Y-120692938D01*
X115274560Y-120692938D02*
X115115702Y-120750245D01*
X115115702Y-120750245D02*
X114967094Y-120836144D01*
X114967094Y-120836144D02*
X114834265Y-120947986D01*
X114834265Y-120947986D02*
X114722744Y-121083123D01*
X114722744Y-121083123D02*
X114710989Y-121100883D01*
X114710989Y-121100883D02*
X114672492Y-121157150D01*
X114672492Y-121157150D02*
X114639137Y-121199923D01*
X114639137Y-121199923D02*
X114617840Y-121220372D01*
X114617840Y-121220372D02*
X114617167Y-121220669D01*
X114617167Y-121220669D02*
X114594129Y-121216279D01*
X114594129Y-121216279D02*
X114541843Y-121198876D01*
X114541843Y-121198876D02*
X114464610Y-121170268D01*
X114464610Y-121170268D02*
X114366732Y-121132265D01*
X114366732Y-121132265D02*
X114252509Y-121086674D01*
X114252509Y-121086674D02*
X114126242Y-121035303D01*
X114126242Y-121035303D02*
X113992233Y-120979962D01*
X113992233Y-120979962D02*
X113854782Y-120922458D01*
X113854782Y-120922458D02*
X113718192Y-120864601D01*
X113718192Y-120864601D02*
X113586763Y-120808198D01*
X113586763Y-120808198D02*
X113464795Y-120755058D01*
X113464795Y-120755058D02*
X113356591Y-120706990D01*
X113356591Y-120706990D02*
X113266451Y-120665801D01*
X113266451Y-120665801D02*
X113198677Y-120633301D01*
X113198677Y-120633301D02*
X113157570Y-120611297D01*
X113157570Y-120611297D02*
X113146774Y-120602436D01*
X113146774Y-120602436D02*
X113155181Y-120575360D01*
X113155181Y-120575360D02*
X113177728Y-120524697D01*
X113177728Y-120524697D02*
X113210387Y-120459183D01*
X113210387Y-120459183D02*
X113229480Y-120423159D01*
X113229480Y-120423159D02*
X113312200Y-120270168D01*
X113312200Y-120270168D02*
X113188925Y-120087912D01*
X113188925Y-120087912D02*
X113125772Y-119994875D01*
X113125772Y-119994875D02*
X113056273Y-119893015D01*
X113056273Y-119893015D02*
X112990835Y-119797562D01*
X112990835Y-119797562D02*
X112957883Y-119749750D01*
X112957883Y-119749750D02*
X112912727Y-119682505D01*
X112912727Y-119682505D02*
X112876943Y-119625564D01*
X112876943Y-119625564D02*
X112855062Y-119586354D01*
X112855062Y-119586354D02*
X112850437Y-119573619D01*
X112850437Y-119573619D02*
X112862915Y-119555083D01*
X112862915Y-119555083D02*
X112897748Y-119514059D01*
X112897748Y-119514059D02*
X112951322Y-119454525D01*
X112951322Y-119454525D02*
X113020017Y-119380458D01*
X113020017Y-119380458D02*
X113100219Y-119295835D01*
X113100219Y-119295835D02*
X113151714Y-119242315D01*
X113151714Y-119242315D02*
X113243714Y-119148681D01*
X113243714Y-119148681D02*
X113326001Y-119067759D01*
X113326001Y-119067759D02*
X113395055Y-119002823D01*
X113395055Y-119002823D02*
X113447356Y-118957142D01*
X113447356Y-118957142D02*
X113479384Y-118933989D01*
X113479384Y-118933989D02*
X113485884Y-118931768D01*
X113485884Y-118931768D02*
X113510606Y-118942076D01*
X113510606Y-118942076D02*
X113560595Y-118970561D01*
X113560595Y-118970561D02*
X113630788Y-119014063D01*
X113630788Y-119014063D02*
X113716125Y-119069423D01*
X113716125Y-119069423D02*
X113811544Y-119133480D01*
X113811544Y-119133480D02*
X113838146Y-119151697D01*
X113838146Y-119151697D02*
X113934833Y-119218073D01*
X113934833Y-119218073D02*
X114021883Y-119277622D01*
X114021883Y-119277622D02*
X114094405Y-119327016D01*
X114094405Y-119327016D02*
X114147507Y-119362925D01*
X114147507Y-119362925D02*
X114176297Y-119382019D01*
X114176297Y-119382019D02*
X114179274Y-119383864D01*
X114179274Y-119383864D02*
X114202218Y-119381105D01*
X114202218Y-119381105D02*
X114252664Y-119366462D01*
X114252664Y-119366462D02*
X114323959Y-119342487D01*
X114323959Y-119342487D02*
X114409453Y-119311734D01*
X114409453Y-119311734D02*
X114502493Y-119276756D01*
X114502493Y-119276756D02*
X114596426Y-119240107D01*
X114596426Y-119240107D02*
X114684601Y-119204339D01*
X114684601Y-119204339D02*
X114760366Y-119172006D01*
X114760366Y-119172006D02*
X114817069Y-119145662D01*
X114817069Y-119145662D02*
X114848057Y-119127858D01*
X114848057Y-119127858D02*
X114849543Y-119126593D01*
X114849543Y-119126593D02*
X114858399Y-119115706D01*
X114858399Y-119115706D02*
X114867157Y-119097318D01*
X114867157Y-119097318D02*
X114876723Y-119067394D01*
X114876723Y-119067394D02*
X114888004Y-119021897D01*
X114888004Y-119021897D02*
X114901907Y-118956791D01*
X114901907Y-118956791D02*
X114919337Y-118868039D01*
X114919337Y-118868039D02*
X114941202Y-118751607D01*
X114941202Y-118751607D02*
X114968409Y-118603458D01*
X114968409Y-118603458D02*
X114974259Y-118571382D01*
X114974259Y-118571382D02*
X114992626Y-118476314D01*
X114992626Y-118476314D02*
X115010595Y-118393435D01*
X115010595Y-118393435D02*
X115026431Y-118330070D01*
X115026431Y-118330070D02*
X115038400Y-118293542D01*
X115038400Y-118293542D02*
X115041190Y-118288644D01*
X115041190Y-118288644D02*
X115065928Y-118280573D01*
X115065928Y-118280573D02*
X115121210Y-118274013D01*
X115121210Y-118274013D02*
X115200611Y-118268967D01*
X115200611Y-118268967D02*
X115297704Y-118265441D01*
X115297704Y-118265441D02*
X115406062Y-118263439D01*
X115406062Y-118263439D02*
X115519260Y-118262964D01*
X115519260Y-118262964D02*
X115630872Y-118264023D01*
X115630872Y-118264023D02*
X115734471Y-118266618D01*
X115734471Y-118266618D02*
X115823632Y-118270754D01*
X115823632Y-118270754D02*
X115891928Y-118276437D01*
X115891928Y-118276437D02*
X115932934Y-118283669D01*
X115932934Y-118283669D02*
X115941326Y-118288029D01*
X115941326Y-118288029D02*
X115949792Y-118312302D01*
X115949792Y-118312302D02*
X115963565Y-118367574D01*
X115963565Y-118367574D02*
X115981450Y-118448338D01*
X115981450Y-118448338D02*
X116002252Y-118549088D01*
X116002252Y-118549088D02*
X116024777Y-118664317D01*
X116024777Y-118664317D02*
X116036582Y-118727098D01*
X116036582Y-118727098D02*
X116058849Y-118846213D01*
X116058849Y-118846213D02*
X116079021Y-118952435D01*
X116079021Y-118952435D02*
X116096085Y-119040573D01*
X116096085Y-119040573D02*
X116109031Y-119105434D01*
X116109031Y-119105434D02*
X116116845Y-119141826D01*
X116116845Y-119141826D02*
X116118578Y-119147816D01*
X116118578Y-119147816D02*
X116138110Y-119157939D01*
X116138110Y-119157939D02*
X116185157Y-119179338D01*
X116185157Y-119179338D02*
X116252997Y-119209161D01*
X116252997Y-119209161D02*
X116334909Y-119244555D01*
X116334909Y-119244555D02*
X116424172Y-119282668D01*
X116424172Y-119282668D02*
X116514065Y-119320647D01*
X116514065Y-119320647D02*
X116597865Y-119355640D01*
X116597865Y-119355640D02*
X116668853Y-119384794D01*
X116668853Y-119384794D02*
X116720306Y-119405257D01*
X116720306Y-119405257D02*
X116745503Y-119414177D01*
X116745503Y-119414177D02*
X116746604Y-119414343D01*
X116746604Y-119414343D02*
X116766481Y-119404231D01*
X116766481Y-119404231D02*
X116812223Y-119375883D01*
X116812223Y-119375883D02*
X116879283Y-119332277D01*
X116879283Y-119332277D02*
X116963116Y-119276394D01*
X116963116Y-119276394D02*
X117059174Y-119211213D01*
X117059174Y-119211213D02*
X117114350Y-119173321D01*
X117114350Y-119173321D02*
X117215519Y-119104275D01*
X117215519Y-119104275D02*
X117307370Y-119042950D01*
X117307370Y-119042950D02*
X117385256Y-118992337D01*
X117385256Y-118992337D02*
X117444531Y-118955429D01*
X117444531Y-118955429D02*
X117480549Y-118935218D01*
X117480549Y-118935218D02*
X117488623Y-118932299D01*
X117488623Y-118932299D02*
X117507416Y-118944847D01*
X117507416Y-118944847D02*
X117547543Y-118979537D01*
X117547543Y-118979537D02*
X117604507Y-119031937D01*
X117604507Y-119031937D02*
X117673815Y-119097616D01*
X117673815Y-119097616D02*
X117750969Y-119172144D01*
X117750969Y-119172144D02*
X117831475Y-119251087D01*
X117831475Y-119251087D02*
X117910837Y-119330017D01*
X117910837Y-119330017D02*
X117984560Y-119404500D01*
X117984560Y-119404500D02*
X118048148Y-119470106D01*
X118048148Y-119470106D02*
X118097106Y-119522404D01*
X118097106Y-119522404D02*
X118126939Y-119556961D01*
X118126939Y-119556961D02*
X118134058Y-119568522D01*
X118134058Y-119568522D02*
X118124047Y-119587346D01*
X118124047Y-119587346D02*
X118095922Y-119632369D01*
X118095922Y-119632369D02*
X118052546Y-119699213D01*
X118052546Y-119699213D02*
X117996782Y-119783501D01*
X117996782Y-119783501D02*
X117931494Y-119880856D01*
X117931494Y-119880856D02*
X117881754Y-119954293D01*
X117881754Y-119954293D02*
X117629449Y-120325333D01*
X117629449Y-120325333D02*
X117884445Y-120943905D01*
X117884445Y-120943905D02*
X118329069Y-121027725D01*
X118329069Y-121027725D02*
X118773693Y-121111546D01*
X118773693Y-121111546D02*
X118773693Y-122036994D01*
X118773693Y-122036994D02*
X118329069Y-122120814D01*
X118329069Y-122120814D02*
X118329069Y-122120814D01*
G36*
X115630872Y-118264023D02*
G01*
X115734471Y-118266618D01*
X115823632Y-118270754D01*
X115891928Y-118276437D01*
X115932934Y-118283669D01*
X115941326Y-118288029D01*
X115949792Y-118312302D01*
X115963565Y-118367574D01*
X115981450Y-118448338D01*
X116002252Y-118549088D01*
X116024777Y-118664317D01*
X116036582Y-118727098D01*
X116058849Y-118846213D01*
X116079021Y-118952435D01*
X116096085Y-119040573D01*
X116109031Y-119105434D01*
X116116845Y-119141826D01*
X116118578Y-119147816D01*
X116138110Y-119157939D01*
X116185157Y-119179338D01*
X116252997Y-119209161D01*
X116334909Y-119244555D01*
X116424172Y-119282668D01*
X116514065Y-119320647D01*
X116597865Y-119355640D01*
X116668853Y-119384794D01*
X116720306Y-119405257D01*
X116745503Y-119414177D01*
X116746604Y-119414343D01*
X116766481Y-119404231D01*
X116812223Y-119375883D01*
X116879283Y-119332277D01*
X116963116Y-119276394D01*
X117059174Y-119211213D01*
X117114350Y-119173321D01*
X117215519Y-119104275D01*
X117307370Y-119042950D01*
X117385256Y-118992337D01*
X117444531Y-118955429D01*
X117480549Y-118935218D01*
X117488623Y-118932299D01*
X117507416Y-118944847D01*
X117547543Y-118979537D01*
X117604507Y-119031937D01*
X117673815Y-119097616D01*
X117750969Y-119172144D01*
X117831475Y-119251087D01*
X117910837Y-119330017D01*
X117984560Y-119404500D01*
X118048148Y-119470106D01*
X118097106Y-119522404D01*
X118126939Y-119556961D01*
X118134058Y-119568522D01*
X118124047Y-119587346D01*
X118095922Y-119632369D01*
X118052546Y-119699213D01*
X117996782Y-119783501D01*
X117931494Y-119880856D01*
X117881754Y-119954293D01*
X117629449Y-120325333D01*
X117884445Y-120943905D01*
X118329069Y-121027725D01*
X118773693Y-121111546D01*
X118773693Y-122036994D01*
X118329069Y-122120814D01*
X117884445Y-122204635D01*
X117756947Y-122513920D01*
X117629449Y-122823206D01*
X117881754Y-123194246D01*
X117952004Y-123298157D01*
X118014728Y-123392087D01*
X118067062Y-123471652D01*
X118106143Y-123532470D01*
X118129107Y-123570157D01*
X118134058Y-123580421D01*
X118121324Y-123598910D01*
X118086118Y-123638420D01*
X118032938Y-123694522D01*
X117966282Y-123762787D01*
X117890646Y-123838786D01*
X117810528Y-123918092D01*
X117730426Y-123996275D01*
X117654836Y-124068907D01*
X117588255Y-124131559D01*
X117535182Y-124179803D01*
X117500113Y-124209210D01*
X117488377Y-124216241D01*
X117466740Y-124206123D01*
X117419338Y-124177759D01*
X117350807Y-124134129D01*
X117265785Y-124078218D01*
X117168907Y-124013006D01*
X117113650Y-123975219D01*
X117012752Y-123906343D01*
X116921701Y-123845140D01*
X116845030Y-123794578D01*
X116787272Y-123757628D01*
X116752957Y-123737258D01*
X116745746Y-123734197D01*
X116725252Y-123741136D01*
X116677487Y-123760051D01*
X116609168Y-123788087D01*
X116527011Y-123822391D01*
X116437730Y-123860109D01*
X116348042Y-123898387D01*
X116264662Y-123934370D01*
X116194306Y-123965206D01*
X116143690Y-123988039D01*
X116119529Y-124000017D01*
X116118578Y-124000724D01*
X116113964Y-124019531D01*
X116103672Y-124069618D01*
X116088713Y-124145793D01*
X116070099Y-124242865D01*
X116048841Y-124355643D01*
X116036582Y-124421442D01*
X116013638Y-124541950D01*
X115991805Y-124650797D01*
X115972278Y-124742476D01*
X115956252Y-124811481D01*
X115944921Y-124852304D01*
X115941326Y-124860511D01*
X115916994Y-124868548D01*
X115862041Y-124875033D01*
X115782892Y-124879970D01*
X115685974Y-124883364D01*
X115577713Y-124885218D01*
X115464535Y-124885538D01*
X115352865Y-124884327D01*
X115249132Y-124881590D01*
X115159759Y-124877331D01*
X115091174Y-124871555D01*
X115049803Y-124864267D01*
X115041190Y-124859895D01*
X115030867Y-124833764D01*
X115016108Y-124778393D01*
X114998648Y-124701107D01*
X114980220Y-124609230D01*
X114974259Y-124577158D01*
X114945934Y-124422524D01*
X114923124Y-124300375D01*
X114904920Y-124206673D01*
X114890417Y-124137384D01*
X114878708Y-124088471D01*
X114868885Y-124055897D01*
X114860044Y-124035628D01*
X114851276Y-124023626D01*
X114849543Y-124021947D01*
X114821629Y-124005184D01*
X114767305Y-123979614D01*
X114693223Y-123947788D01*
X114606035Y-123912260D01*
X114512392Y-123875583D01*
X114418948Y-123840311D01*
X114332353Y-123808996D01*
X114259260Y-123784193D01*
X114206322Y-123768454D01*
X114180189Y-123764332D01*
X114179274Y-123764676D01*
X114157914Y-123778641D01*
X114110916Y-123810322D01*
X114043173Y-123856391D01*
X113959577Y-123913518D01*
X113865018Y-123978373D01*
X113838146Y-123996843D01*
X113740725Y-124062699D01*
X113651837Y-124120650D01*
X113576588Y-124167538D01*
X113520080Y-124200207D01*
X113487419Y-124215500D01*
X113483407Y-124216241D01*
X113462316Y-124203392D01*
X113420536Y-124167888D01*
X113362555Y-124114293D01*
X113292865Y-124047171D01*
X113215955Y-123971087D01*
X113136317Y-123890604D01*
X113058439Y-123810287D01*
X112986814Y-123734699D01*
X112925930Y-123668405D01*
X112880279Y-123615969D01*
X112854350Y-123581955D01*
X112850117Y-123572545D01*
X112860088Y-123550643D01*
X112886980Y-123505800D01*
X112926264Y-123445321D01*
X112957883Y-123398789D01*
X113015902Y-123314475D01*
X113084216Y-123214626D01*
X113152421Y-123114473D01*
X113188925Y-123060627D01*
X113312200Y-122878371D01*
X113229480Y-122725381D01*
X113193241Y-122655682D01*
X113165074Y-122596414D01*
X113149009Y-122556311D01*
X113146774Y-122546103D01*
X113163278Y-122533829D01*
X113209918Y-122509613D01*
X113282391Y-122475263D01*
X113376394Y-122432588D01*
X113487626Y-122383394D01*
X113611785Y-122329490D01*
X113744568Y-122272684D01*
X113881673Y-122214782D01*
X114018798Y-122157593D01*
X114151642Y-122102924D01*
X114275902Y-122052584D01*
X114387275Y-122008380D01*
X114481461Y-121972119D01*
X114554156Y-121945609D01*
X114601059Y-121930658D01*
X114617167Y-121928254D01*
X114637714Y-121947311D01*
X114671067Y-121989036D01*
X114710298Y-122044706D01*
X114713401Y-122049378D01*
X114828577Y-122193264D01*
X114962947Y-122309283D01*
X115112216Y-122396430D01*
X115272087Y-122453699D01*
X115438263Y-122480086D01*
X115606448Y-122474585D01*
X115772345Y-122436190D01*
X115931658Y-122363895D01*
X115966513Y-122342626D01*
X116107263Y-122231996D01*
X116220286Y-122101302D01*
X116304997Y-121955064D01*
X116360806Y-121797808D01*
X116387126Y-121634057D01*
X116383370Y-121468333D01*
X116348950Y-121305162D01*
X116283277Y-121149065D01*
X116185765Y-121004567D01*
X116146187Y-120959869D01*
X116022297Y-120846112D01*
X115891876Y-120763218D01*
X115745685Y-120706356D01*
X115600912Y-120674687D01*
X115438140Y-120666869D01*
X115274560Y-120692938D01*
X115115702Y-120750245D01*
X114967094Y-120836144D01*
X114834265Y-120947986D01*
X114722744Y-121083123D01*
X114710989Y-121100883D01*
X114672492Y-121157150D01*
X114639137Y-121199923D01*
X114617840Y-121220372D01*
X114617167Y-121220669D01*
X114594129Y-121216279D01*
X114541843Y-121198876D01*
X114464610Y-121170268D01*
X114366732Y-121132265D01*
X114252509Y-121086674D01*
X114126242Y-121035303D01*
X113992233Y-120979962D01*
X113854782Y-120922458D01*
X113718192Y-120864601D01*
X113586763Y-120808198D01*
X113464795Y-120755058D01*
X113356591Y-120706990D01*
X113266451Y-120665801D01*
X113198677Y-120633301D01*
X113157570Y-120611297D01*
X113146774Y-120602436D01*
X113155181Y-120575360D01*
X113177728Y-120524697D01*
X113210387Y-120459183D01*
X113229480Y-120423159D01*
X113312200Y-120270168D01*
X113188925Y-120087912D01*
X113125772Y-119994875D01*
X113056273Y-119893015D01*
X112990835Y-119797562D01*
X112957883Y-119749750D01*
X112912727Y-119682505D01*
X112876943Y-119625564D01*
X112855062Y-119586354D01*
X112850437Y-119573619D01*
X112862915Y-119555083D01*
X112897748Y-119514059D01*
X112951322Y-119454525D01*
X113020017Y-119380458D01*
X113100219Y-119295835D01*
X113151714Y-119242315D01*
X113243714Y-119148681D01*
X113326001Y-119067759D01*
X113395055Y-119002823D01*
X113447356Y-118957142D01*
X113479384Y-118933989D01*
X113485884Y-118931768D01*
X113510606Y-118942076D01*
X113560595Y-118970561D01*
X113630788Y-119014063D01*
X113716125Y-119069423D01*
X113811544Y-119133480D01*
X113838146Y-119151697D01*
X113934833Y-119218073D01*
X114021883Y-119277622D01*
X114094405Y-119327016D01*
X114147507Y-119362925D01*
X114176297Y-119382019D01*
X114179274Y-119383864D01*
X114202218Y-119381105D01*
X114252664Y-119366462D01*
X114323959Y-119342487D01*
X114409453Y-119311734D01*
X114502493Y-119276756D01*
X114596426Y-119240107D01*
X114684601Y-119204339D01*
X114760366Y-119172006D01*
X114817069Y-119145662D01*
X114848057Y-119127858D01*
X114849543Y-119126593D01*
X114858399Y-119115706D01*
X114867157Y-119097318D01*
X114876723Y-119067394D01*
X114888004Y-119021897D01*
X114901907Y-118956791D01*
X114919337Y-118868039D01*
X114941202Y-118751607D01*
X114968409Y-118603458D01*
X114974259Y-118571382D01*
X114992626Y-118476314D01*
X115010595Y-118393435D01*
X115026431Y-118330070D01*
X115038400Y-118293542D01*
X115041190Y-118288644D01*
X115065928Y-118280573D01*
X115121210Y-118274013D01*
X115200611Y-118268967D01*
X115297704Y-118265441D01*
X115406062Y-118263439D01*
X115519260Y-118262964D01*
X115630872Y-118264023D01*
G37*
X115630872Y-118264023D02*
X115734471Y-118266618D01*
X115823632Y-118270754D01*
X115891928Y-118276437D01*
X115932934Y-118283669D01*
X115941326Y-118288029D01*
X115949792Y-118312302D01*
X115963565Y-118367574D01*
X115981450Y-118448338D01*
X116002252Y-118549088D01*
X116024777Y-118664317D01*
X116036582Y-118727098D01*
X116058849Y-118846213D01*
X116079021Y-118952435D01*
X116096085Y-119040573D01*
X116109031Y-119105434D01*
X116116845Y-119141826D01*
X116118578Y-119147816D01*
X116138110Y-119157939D01*
X116185157Y-119179338D01*
X116252997Y-119209161D01*
X116334909Y-119244555D01*
X116424172Y-119282668D01*
X116514065Y-119320647D01*
X116597865Y-119355640D01*
X116668853Y-119384794D01*
X116720306Y-119405257D01*
X116745503Y-119414177D01*
X116746604Y-119414343D01*
X116766481Y-119404231D01*
X116812223Y-119375883D01*
X116879283Y-119332277D01*
X116963116Y-119276394D01*
X117059174Y-119211213D01*
X117114350Y-119173321D01*
X117215519Y-119104275D01*
X117307370Y-119042950D01*
X117385256Y-118992337D01*
X117444531Y-118955429D01*
X117480549Y-118935218D01*
X117488623Y-118932299D01*
X117507416Y-118944847D01*
X117547543Y-118979537D01*
X117604507Y-119031937D01*
X117673815Y-119097616D01*
X117750969Y-119172144D01*
X117831475Y-119251087D01*
X117910837Y-119330017D01*
X117984560Y-119404500D01*
X118048148Y-119470106D01*
X118097106Y-119522404D01*
X118126939Y-119556961D01*
X118134058Y-119568522D01*
X118124047Y-119587346D01*
X118095922Y-119632369D01*
X118052546Y-119699213D01*
X117996782Y-119783501D01*
X117931494Y-119880856D01*
X117881754Y-119954293D01*
X117629449Y-120325333D01*
X117884445Y-120943905D01*
X118329069Y-121027725D01*
X118773693Y-121111546D01*
X118773693Y-122036994D01*
X118329069Y-122120814D01*
X117884445Y-122204635D01*
X117756947Y-122513920D01*
X117629449Y-122823206D01*
X117881754Y-123194246D01*
X117952004Y-123298157D01*
X118014728Y-123392087D01*
X118067062Y-123471652D01*
X118106143Y-123532470D01*
X118129107Y-123570157D01*
X118134058Y-123580421D01*
X118121324Y-123598910D01*
X118086118Y-123638420D01*
X118032938Y-123694522D01*
X117966282Y-123762787D01*
X117890646Y-123838786D01*
X117810528Y-123918092D01*
X117730426Y-123996275D01*
X117654836Y-124068907D01*
X117588255Y-124131559D01*
X117535182Y-124179803D01*
X117500113Y-124209210D01*
X117488377Y-124216241D01*
X117466740Y-124206123D01*
X117419338Y-124177759D01*
X117350807Y-124134129D01*
X117265785Y-124078218D01*
X117168907Y-124013006D01*
X117113650Y-123975219D01*
X117012752Y-123906343D01*
X116921701Y-123845140D01*
X116845030Y-123794578D01*
X116787272Y-123757628D01*
X116752957Y-123737258D01*
X116745746Y-123734197D01*
X116725252Y-123741136D01*
X116677487Y-123760051D01*
X116609168Y-123788087D01*
X116527011Y-123822391D01*
X116437730Y-123860109D01*
X116348042Y-123898387D01*
X116264662Y-123934370D01*
X116194306Y-123965206D01*
X116143690Y-123988039D01*
X116119529Y-124000017D01*
X116118578Y-124000724D01*
X116113964Y-124019531D01*
X116103672Y-124069618D01*
X116088713Y-124145793D01*
X116070099Y-124242865D01*
X116048841Y-124355643D01*
X116036582Y-124421442D01*
X116013638Y-124541950D01*
X115991805Y-124650797D01*
X115972278Y-124742476D01*
X115956252Y-124811481D01*
X115944921Y-124852304D01*
X115941326Y-124860511D01*
X115916994Y-124868548D01*
X115862041Y-124875033D01*
X115782892Y-124879970D01*
X115685974Y-124883364D01*
X115577713Y-124885218D01*
X115464535Y-124885538D01*
X115352865Y-124884327D01*
X115249132Y-124881590D01*
X115159759Y-124877331D01*
X115091174Y-124871555D01*
X115049803Y-124864267D01*
X115041190Y-124859895D01*
X115030867Y-124833764D01*
X115016108Y-124778393D01*
X114998648Y-124701107D01*
X114980220Y-124609230D01*
X114974259Y-124577158D01*
X114945934Y-124422524D01*
X114923124Y-124300375D01*
X114904920Y-124206673D01*
X114890417Y-124137384D01*
X114878708Y-124088471D01*
X114868885Y-124055897D01*
X114860044Y-124035628D01*
X114851276Y-124023626D01*
X114849543Y-124021947D01*
X114821629Y-124005184D01*
X114767305Y-123979614D01*
X114693223Y-123947788D01*
X114606035Y-123912260D01*
X114512392Y-123875583D01*
X114418948Y-123840311D01*
X114332353Y-123808996D01*
X114259260Y-123784193D01*
X114206322Y-123768454D01*
X114180189Y-123764332D01*
X114179274Y-123764676D01*
X114157914Y-123778641D01*
X114110916Y-123810322D01*
X114043173Y-123856391D01*
X113959577Y-123913518D01*
X113865018Y-123978373D01*
X113838146Y-123996843D01*
X113740725Y-124062699D01*
X113651837Y-124120650D01*
X113576588Y-124167538D01*
X113520080Y-124200207D01*
X113487419Y-124215500D01*
X113483407Y-124216241D01*
X113462316Y-124203392D01*
X113420536Y-124167888D01*
X113362555Y-124114293D01*
X113292865Y-124047171D01*
X113215955Y-123971087D01*
X113136317Y-123890604D01*
X113058439Y-123810287D01*
X112986814Y-123734699D01*
X112925930Y-123668405D01*
X112880279Y-123615969D01*
X112854350Y-123581955D01*
X112850117Y-123572545D01*
X112860088Y-123550643D01*
X112886980Y-123505800D01*
X112926264Y-123445321D01*
X112957883Y-123398789D01*
X113015902Y-123314475D01*
X113084216Y-123214626D01*
X113152421Y-123114473D01*
X113188925Y-123060627D01*
X113312200Y-122878371D01*
X113229480Y-122725381D01*
X113193241Y-122655682D01*
X113165074Y-122596414D01*
X113149009Y-122556311D01*
X113146774Y-122546103D01*
X113163278Y-122533829D01*
X113209918Y-122509613D01*
X113282391Y-122475263D01*
X113376394Y-122432588D01*
X113487626Y-122383394D01*
X113611785Y-122329490D01*
X113744568Y-122272684D01*
X113881673Y-122214782D01*
X114018798Y-122157593D01*
X114151642Y-122102924D01*
X114275902Y-122052584D01*
X114387275Y-122008380D01*
X114481461Y-121972119D01*
X114554156Y-121945609D01*
X114601059Y-121930658D01*
X114617167Y-121928254D01*
X114637714Y-121947311D01*
X114671067Y-121989036D01*
X114710298Y-122044706D01*
X114713401Y-122049378D01*
X114828577Y-122193264D01*
X114962947Y-122309283D01*
X115112216Y-122396430D01*
X115272087Y-122453699D01*
X115438263Y-122480086D01*
X115606448Y-122474585D01*
X115772345Y-122436190D01*
X115931658Y-122363895D01*
X115966513Y-122342626D01*
X116107263Y-122231996D01*
X116220286Y-122101302D01*
X116304997Y-121955064D01*
X116360806Y-121797808D01*
X116387126Y-121634057D01*
X116383370Y-121468333D01*
X116348950Y-121305162D01*
X116283277Y-121149065D01*
X116185765Y-121004567D01*
X116146187Y-120959869D01*
X116022297Y-120846112D01*
X115891876Y-120763218D01*
X115745685Y-120706356D01*
X115600912Y-120674687D01*
X115438140Y-120666869D01*
X115274560Y-120692938D01*
X115115702Y-120750245D01*
X114967094Y-120836144D01*
X114834265Y-120947986D01*
X114722744Y-121083123D01*
X114710989Y-121100883D01*
X114672492Y-121157150D01*
X114639137Y-121199923D01*
X114617840Y-121220372D01*
X114617167Y-121220669D01*
X114594129Y-121216279D01*
X114541843Y-121198876D01*
X114464610Y-121170268D01*
X114366732Y-121132265D01*
X114252509Y-121086674D01*
X114126242Y-121035303D01*
X113992233Y-120979962D01*
X113854782Y-120922458D01*
X113718192Y-120864601D01*
X113586763Y-120808198D01*
X113464795Y-120755058D01*
X113356591Y-120706990D01*
X113266451Y-120665801D01*
X113198677Y-120633301D01*
X113157570Y-120611297D01*
X113146774Y-120602436D01*
X113155181Y-120575360D01*
X113177728Y-120524697D01*
X113210387Y-120459183D01*
X113229480Y-120423159D01*
X113312200Y-120270168D01*
X113188925Y-120087912D01*
X113125772Y-119994875D01*
X113056273Y-119893015D01*
X112990835Y-119797562D01*
X112957883Y-119749750D01*
X112912727Y-119682505D01*
X112876943Y-119625564D01*
X112855062Y-119586354D01*
X112850437Y-119573619D01*
X112862915Y-119555083D01*
X112897748Y-119514059D01*
X112951322Y-119454525D01*
X113020017Y-119380458D01*
X113100219Y-119295835D01*
X113151714Y-119242315D01*
X113243714Y-119148681D01*
X113326001Y-119067759D01*
X113395055Y-119002823D01*
X113447356Y-118957142D01*
X113479384Y-118933989D01*
X113485884Y-118931768D01*
X113510606Y-118942076D01*
X113560595Y-118970561D01*
X113630788Y-119014063D01*
X113716125Y-119069423D01*
X113811544Y-119133480D01*
X113838146Y-119151697D01*
X113934833Y-119218073D01*
X114021883Y-119277622D01*
X114094405Y-119327016D01*
X114147507Y-119362925D01*
X114176297Y-119382019D01*
X114179274Y-119383864D01*
X114202218Y-119381105D01*
X114252664Y-119366462D01*
X114323959Y-119342487D01*
X114409453Y-119311734D01*
X114502493Y-119276756D01*
X114596426Y-119240107D01*
X114684601Y-119204339D01*
X114760366Y-119172006D01*
X114817069Y-119145662D01*
X114848057Y-119127858D01*
X114849543Y-119126593D01*
X114858399Y-119115706D01*
X114867157Y-119097318D01*
X114876723Y-119067394D01*
X114888004Y-119021897D01*
X114901907Y-118956791D01*
X114919337Y-118868039D01*
X114941202Y-118751607D01*
X114968409Y-118603458D01*
X114974259Y-118571382D01*
X114992626Y-118476314D01*
X115010595Y-118393435D01*
X115026431Y-118330070D01*
X115038400Y-118293542D01*
X115041190Y-118288644D01*
X115065928Y-118280573D01*
X115121210Y-118274013D01*
X115200611Y-118268967D01*
X115297704Y-118265441D01*
X115406062Y-118263439D01*
X115519260Y-118262964D01*
X115630872Y-118264023D01*
%TD*%
D15*
%TO.C,P1*%
X138938000Y-123825000D03*
X141478000Y-123825000D03*
X144018000Y-123825000D03*
X146558000Y-123825000D03*
X149098000Y-123825000D03*
X151638000Y-123825000D03*
X154178000Y-123825000D03*
X156718000Y-123825000D03*
%TD*%
%TO.C,P2*%
X161798000Y-123825000D03*
X164338000Y-123825000D03*
X166878000Y-123825000D03*
X169418000Y-123825000D03*
X171958000Y-123825000D03*
X174498000Y-123825000D03*
%TD*%
%TO.C,P3*%
X129794000Y-75565000D03*
X132334000Y-75565000D03*
X134874000Y-75565000D03*
X137414000Y-75565000D03*
X139954000Y-75565000D03*
X142494000Y-75565000D03*
X145034000Y-75565000D03*
X147574000Y-75565000D03*
X150114000Y-75565000D03*
X152654000Y-75565000D03*
%TD*%
%TO.C,P4*%
X156718000Y-75565000D03*
X159258000Y-75565000D03*
X161798000Y-75565000D03*
X164338000Y-75565000D03*
X166878000Y-75565000D03*
X169418000Y-75565000D03*
X171958000Y-75565000D03*
X174498000Y-75565000D03*
%TD*%
D16*
%TO.C,P5*%
X124968000Y-123825000D03*
%TD*%
%TO.C,P7*%
X126238000Y-75565000D03*
%TD*%
%LPC*%
D17*
%TO.C,D1*%
X154448000Y-118965000D03*
X157748000Y-118965000D03*
%TD*%
D18*
%TO.C,U1*%
X131128000Y-111435000D03*
X131128000Y-108895000D03*
X133668000Y-111435000D03*
X133668000Y-108895000D03*
X136208000Y-111435000D03*
X136208000Y-108895000D03*
X138748000Y-111435000D03*
X138748000Y-108895000D03*
X141288000Y-111435000D03*
X141288000Y-108895000D03*
X143828000Y-111435000D03*
X143828000Y-108895000D03*
X146368000Y-111435000D03*
X146368000Y-108895000D03*
X148908000Y-111435000D03*
X148908000Y-108895000D03*
X151448000Y-111435000D03*
X151448000Y-108895000D03*
X153988000Y-111435000D03*
X153988000Y-108895000D03*
X131128000Y-86035000D03*
X131128000Y-83495000D03*
X133668000Y-86035000D03*
X133668000Y-83495000D03*
X136208000Y-86035000D03*
X136208000Y-83495000D03*
X138748000Y-86035000D03*
X138748000Y-83495000D03*
X141288000Y-86035000D03*
X141288000Y-83495000D03*
X143828000Y-86035000D03*
X143828000Y-83495000D03*
X146368000Y-86035000D03*
X146368000Y-83495000D03*
X148908000Y-86035000D03*
X148908000Y-83495000D03*
X151448000Y-86035000D03*
X151448000Y-83495000D03*
X153988000Y-86035000D03*
X153988000Y-83495000D03*
%TD*%
D19*
%TO.C,J2*%
X174298000Y-114415123D03*
X174298000Y-110415004D03*
%TD*%
%TO.C,J1*%
X174274300Y-87215123D03*
X174274300Y-83215004D03*
%TD*%
D20*
%TO.C,P1*%
X138938000Y-123825000D03*
X141478000Y-123825000D03*
X144018000Y-123825000D03*
X146558000Y-123825000D03*
X149098000Y-123825000D03*
X151638000Y-123825000D03*
X154178000Y-123825000D03*
X156718000Y-123825000D03*
%TD*%
%TO.C,P2*%
X161798000Y-123825000D03*
X164338000Y-123825000D03*
X166878000Y-123825000D03*
X169418000Y-123825000D03*
X171958000Y-123825000D03*
X174498000Y-123825000D03*
%TD*%
%TO.C,P3*%
X129794000Y-75565000D03*
X132334000Y-75565000D03*
X134874000Y-75565000D03*
X137414000Y-75565000D03*
X139954000Y-75565000D03*
X142494000Y-75565000D03*
X145034000Y-75565000D03*
X147574000Y-75565000D03*
X150114000Y-75565000D03*
X152654000Y-75565000D03*
%TD*%
%TO.C,P4*%
X156718000Y-75565000D03*
X159258000Y-75565000D03*
X161798000Y-75565000D03*
X164338000Y-75565000D03*
X166878000Y-75565000D03*
X169418000Y-75565000D03*
X171958000Y-75565000D03*
X174498000Y-75565000D03*
%TD*%
D21*
%TO.C,P5*%
X124968000Y-123825000D03*
%TD*%
%TO.C,P7*%
X126238000Y-75565000D03*
%TD*%
D22*
%TO.C,TP7*%
X131098000Y-123065000D03*
%TD*%
D23*
%TO.C,J4*%
X171673000Y-101840000D03*
X171673000Y-100990000D03*
X171673000Y-100140000D03*
X171673000Y-99290000D03*
X171673000Y-98440000D03*
X171673000Y-97590000D03*
X171673000Y-96740000D03*
X171673000Y-95890000D03*
X173023000Y-95890000D03*
X173023000Y-96740000D03*
X173023000Y-97590000D03*
X173023000Y-98440000D03*
X173023000Y-99290000D03*
X173023000Y-100140000D03*
X173023000Y-100990000D03*
X173023000Y-101840000D03*
D24*
X172653000Y-94540000D03*
D25*
X176033000Y-94540000D03*
D24*
X172653000Y-103190000D03*
D25*
X176033000Y-103190000D03*
%TD*%
D26*
%TO.C,TP3*%
X165398000Y-116965000D03*
%TD*%
%TO.C,TP1*%
X165498000Y-107165000D03*
%TD*%
D27*
%TO.C,J3*%
X114645500Y-97615000D03*
D28*
X117185500Y-97615000D03*
X114645500Y-100155000D03*
X117185500Y-100155000D03*
X114645500Y-102695000D03*
X117185500Y-102695000D03*
X114645500Y-105235000D03*
X117185500Y-105235000D03*
X114645500Y-107775000D03*
X117185500Y-107775000D03*
X114645500Y-110315000D03*
X117185500Y-110315000D03*
%TD*%
D29*
%TO.C,JP1*%
X150598000Y-119065000D03*
D30*
X148058000Y-119065000D03*
X145518000Y-119065000D03*
%TD*%
D26*
%TO.C,TP5*%
X165498000Y-112265000D03*
%TD*%
D31*
%TO.C,R2*%
X169323000Y-97565000D03*
X167673000Y-97565000D03*
%TD*%
%TO.C,R1*%
X169323000Y-100165000D03*
X167673000Y-100165000D03*
%TD*%
D32*
X170498000Y-92465000D03*
X127998000Y-83565000D03*
X137398000Y-78265000D03*
X156898000Y-99365000D03*
X156898000Y-87165000D03*
X156898000Y-91865000D03*
X155998000Y-111465000D03*
X164648000Y-89215000D03*
X136098000Y-92465000D03*
X152698000Y-78065000D03*
X168798000Y-110365000D03*
X168847877Y-114415123D03*
X157398000Y-111565000D03*
X168848000Y-112415000D03*
X153898000Y-81265000D03*
X167698000Y-88665000D03*
X169798123Y-85264877D03*
X145698000Y-81265000D03*
X158598000Y-89765000D03*
X160098000Y-109265000D03*
X143798000Y-91465000D03*
X137498000Y-87765000D03*
X141298000Y-92465000D03*
X137998000Y-89365000D03*
X138998000Y-91865000D03*
X137098000Y-89365000D03*
X145498000Y-116765000D03*
X155798000Y-95665000D03*
X146798000Y-98665000D03*
X162848000Y-88615000D03*
X167798000Y-83665000D03*
X174223000Y-97565000D03*
X170723000Y-97565000D03*
M02*
