%TF.GenerationSoftware,KiCad,Pcbnew,(6.0.0-0)*%
%TF.CreationDate,2022-08-30T21:51:56-06:00*%
%TF.ProjectId,FlippyControl,466c6970-7079-4436-9f6e-74726f6c2e6b,A*%
%TF.SameCoordinates,Original*%
%TF.FileFunction,Soldermask,Top*%
%TF.FilePolarity,Negative*%
%FSLAX46Y46*%
G04 Gerber Fmt 4.6, Leading zero omitted, Abs format (unit mm)*
G04 Created by KiCad (PCBNEW (6.0.0-0)) date 2022-08-30 21:51:56*
%MOMM*%
%LPD*%
G01*
G04 APERTURE LIST*
G04 Aperture macros list*
%AMRoundRect*
0 Rectangle with rounded corners*
0 $1 Rounding radius*
0 $2 $3 $4 $5 $6 $7 $8 $9 X,Y pos of 4 corners*
0 Add a 4 corners polygon primitive as box body*
4,1,4,$2,$3,$4,$5,$6,$7,$8,$9,$2,$3,0*
0 Add four circle primitives for the rounded corners*
1,1,$1+$1,$2,$3*
1,1,$1+$1,$4,$5*
1,1,$1+$1,$6,$7*
1,1,$1+$1,$8,$9*
0 Add four rect primitives between the rounded corners*
20,1,$1+$1,$2,$3,$4,$5,0*
20,1,$1+$1,$4,$5,$6,$7,0*
20,1,$1+$1,$6,$7,$8,$9,0*
20,1,$1+$1,$8,$9,$2,$3,0*%
G04 Aperture macros list end*
%ADD10O,1.727200X2.032000*%
%ADD11C,4.064000*%
%ADD12RoundRect,0.200000X0.275000X-0.200000X0.275000X0.200000X-0.275000X0.200000X-0.275000X-0.200000X0*%
%ADD13RoundRect,0.200000X-0.275000X0.200000X-0.275000X-0.200000X0.275000X-0.200000X0.275000X0.200000X0*%
%ADD14R,1.550000X1.300000*%
%ADD15R,1.200000X0.900000*%
%ADD16C,1.700000*%
%ADD17R,1.700000X1.700000*%
%ADD18O,1.700000X1.700000*%
%ADD19C,2.800000*%
%ADD20O,0.700000X0.600000*%
%ADD21O,2.400000X0.900000*%
%ADD22O,1.700000X0.900000*%
%ADD23RoundRect,0.200000X0.200000X0.275000X-0.200000X0.275000X-0.200000X-0.275000X0.200000X-0.275000X0*%
%ADD24RoundRect,0.250000X-0.600000X-0.600000X0.600000X-0.600000X0.600000X0.600000X-0.600000X0.600000X0*%
%ADD25R,7.599172X1.299972*%
%ADD26RoundRect,0.250000X0.600000X-0.600000X0.600000X0.600000X-0.600000X0.600000X-0.600000X-0.600000X0*%
%ADD27RoundRect,0.150000X-0.825000X-0.150000X0.825000X-0.150000X0.825000X0.150000X-0.825000X0.150000X0*%
%ADD28RoundRect,0.200000X-0.200000X-0.275000X0.200000X-0.275000X0.200000X0.275000X-0.200000X0.275000X0*%
%ADD29C,0.600000*%
G04 APERTURE END LIST*
D10*
%TO.C,P1*%
X138938000Y-123825000D03*
X141478000Y-123825000D03*
X144018000Y-123825000D03*
X146558000Y-123825000D03*
X149098000Y-123825000D03*
X151638000Y-123825000D03*
X154178000Y-123825000D03*
X156718000Y-123825000D03*
%TD*%
%TO.C,P2*%
X161798000Y-123825000D03*
X164338000Y-123825000D03*
X166878000Y-123825000D03*
X169418000Y-123825000D03*
X171958000Y-123825000D03*
X174498000Y-123825000D03*
%TD*%
%TO.C,P3*%
X129794000Y-75565000D03*
X132334000Y-75565000D03*
X134874000Y-75565000D03*
X137414000Y-75565000D03*
X139954000Y-75565000D03*
X142494000Y-75565000D03*
X145034000Y-75565000D03*
X147574000Y-75565000D03*
X150114000Y-75565000D03*
X152654000Y-75565000D03*
%TD*%
%TO.C,P4*%
X156718000Y-75565000D03*
X159258000Y-75565000D03*
X161798000Y-75565000D03*
X164338000Y-75565000D03*
X166878000Y-75565000D03*
X169418000Y-75565000D03*
X171958000Y-75565000D03*
X174498000Y-75565000D03*
%TD*%
D11*
%TO.C,P5*%
X124968000Y-123825000D03*
%TD*%
%TO.C,P7*%
X126238000Y-75565000D03*
%TD*%
D12*
%TO.C,R3*%
X124348000Y-84140000D03*
X124348000Y-82490000D03*
%TD*%
D13*
%TO.C,R4*%
X122498000Y-82490000D03*
X122498000Y-84140000D03*
%TD*%
D14*
%TO.C,SW1*%
X121928000Y-75315000D03*
X113968000Y-75315000D03*
X121928000Y-79815000D03*
X113968000Y-79815000D03*
%TD*%
D15*
%TO.C,D1*%
X130498000Y-110065000D03*
X130498000Y-113365000D03*
%TD*%
D16*
%TO.C,U1*%
X139668000Y-112835000D03*
X139668000Y-110295000D03*
X142208000Y-112835000D03*
X142208000Y-110295000D03*
X144748000Y-112835000D03*
X144748000Y-110295000D03*
X147288000Y-112835000D03*
X147288000Y-110295000D03*
X149828000Y-112835000D03*
X149828000Y-110295000D03*
X152368000Y-112835000D03*
X152368000Y-110295000D03*
X154908000Y-112835000D03*
X154908000Y-110295000D03*
X157448000Y-112835000D03*
X157448000Y-110295000D03*
X159988000Y-112835000D03*
X159988000Y-110295000D03*
X162528000Y-112835000D03*
X162528000Y-110295000D03*
X139668000Y-87435000D03*
X139668000Y-84895000D03*
X142208000Y-87435000D03*
X142208000Y-84895000D03*
X144748000Y-87435000D03*
X144748000Y-84895000D03*
X147288000Y-87435000D03*
X147288000Y-84895000D03*
X149828000Y-87435000D03*
X149828000Y-84895000D03*
X152368000Y-87435000D03*
X152368000Y-84895000D03*
X154908000Y-87435000D03*
X154908000Y-84895000D03*
X157448000Y-87435000D03*
X157448000Y-84895000D03*
X159988000Y-87435000D03*
X159988000Y-84895000D03*
X162528000Y-87435000D03*
X162528000Y-84895000D03*
%TD*%
D17*
%TO.C,JP2*%
X124648000Y-111165000D03*
D18*
X127188000Y-111165000D03*
%TD*%
D17*
%TO.C,J6*%
X127598000Y-86540000D03*
D18*
X127598000Y-84000000D03*
%TD*%
D19*
%TO.C,TP7*%
X131098000Y-123065000D03*
%TD*%
D20*
%TO.C,J4*%
X120123000Y-117540000D03*
X120123000Y-118390000D03*
X120123000Y-119240000D03*
X120123000Y-120090000D03*
X120123000Y-120940000D03*
X120123000Y-121790000D03*
X120123000Y-122640000D03*
X120123000Y-123490000D03*
X118773000Y-123490000D03*
X118773000Y-122640000D03*
X118773000Y-121790000D03*
X118773000Y-120940000D03*
X118773000Y-120090000D03*
X118773000Y-119240000D03*
X118773000Y-118390000D03*
X118773000Y-117540000D03*
D21*
X119143000Y-124840000D03*
D22*
X115763000Y-124840000D03*
D21*
X119143000Y-116190000D03*
D22*
X115763000Y-116190000D03*
%TD*%
D23*
%TO.C,R5*%
X124023000Y-85915000D03*
X122373000Y-85915000D03*
%TD*%
D24*
%TO.C,J3*%
X114645500Y-96365000D03*
D16*
X117185500Y-96365000D03*
X114645500Y-98905000D03*
X117185500Y-98905000D03*
X114645500Y-101445000D03*
X117185500Y-101445000D03*
X114645500Y-103985000D03*
X117185500Y-103985000D03*
X114645500Y-106525000D03*
X117185500Y-106525000D03*
X114645500Y-109065000D03*
X117185500Y-109065000D03*
%TD*%
D25*
%TO.C,J1*%
X174274300Y-87215123D03*
X174274300Y-83215004D03*
%TD*%
D26*
%TO.C,J5*%
X126568000Y-100217500D03*
D16*
X126568000Y-97677500D03*
X129108000Y-100217500D03*
X129108000Y-97677500D03*
X131648000Y-100217500D03*
X131648000Y-97677500D03*
X134188000Y-100217500D03*
X134188000Y-97677500D03*
X136728000Y-100217500D03*
X136728000Y-97677500D03*
X139268000Y-100217500D03*
X139268000Y-97677500D03*
X141808000Y-100217500D03*
X141808000Y-97677500D03*
X144348000Y-100217500D03*
X144348000Y-97677500D03*
X146888000Y-100217500D03*
X146888000Y-97677500D03*
X149428000Y-100217500D03*
X149428000Y-97677500D03*
X151968000Y-100217500D03*
X151968000Y-97677500D03*
X154508000Y-100217500D03*
X154508000Y-97677500D03*
X157048000Y-100217500D03*
X157048000Y-97677500D03*
X159588000Y-100217500D03*
X159588000Y-97677500D03*
X162128000Y-100217500D03*
X162128000Y-97677500D03*
X164668000Y-100217500D03*
X164668000Y-97677500D03*
X167208000Y-100217500D03*
X167208000Y-97677500D03*
X169748000Y-100217500D03*
X169748000Y-97677500D03*
X172288000Y-100217500D03*
X172288000Y-97677500D03*
X174828000Y-100217500D03*
X174828000Y-97677500D03*
%TD*%
D23*
%TO.C,R6*%
X124023000Y-87765000D03*
X122373000Y-87765000D03*
%TD*%
D27*
%TO.C,U2*%
X115223000Y-82860000D03*
X115223000Y-84130000D03*
X115223000Y-85400000D03*
X115223000Y-86670000D03*
X120173000Y-86670000D03*
X120173000Y-85400000D03*
X120173000Y-84130000D03*
X120173000Y-82860000D03*
%TD*%
D17*
%TO.C,JP1*%
X129673000Y-106340000D03*
D18*
X127133000Y-106340000D03*
X124593000Y-106340000D03*
%TD*%
D25*
%TO.C,J2*%
X174298000Y-114415123D03*
X174298000Y-110415004D03*
%TD*%
D28*
%TO.C,R2*%
X122473000Y-119965000D03*
X124123000Y-119965000D03*
%TD*%
%TO.C,R1*%
X122473000Y-118265000D03*
X124123000Y-118265000D03*
%TD*%
D29*
X132848000Y-96215000D03*
X121748000Y-81065000D03*
X117148000Y-86715000D03*
X122398000Y-100865000D03*
X144348000Y-102038500D03*
X149248000Y-94165000D03*
X144097495Y-94661999D03*
X158748000Y-91565000D03*
X137498000Y-103615000D03*
X167148000Y-101965000D03*
X169998000Y-84615000D03*
X143698000Y-108915000D03*
X148248000Y-94165000D03*
X160664511Y-96198489D03*
X143498000Y-92065000D03*
X141098000Y-106015000D03*
X147248000Y-94215000D03*
X158698000Y-86715000D03*
X142498000Y-106015000D03*
X124023000Y-86890000D03*
X167598000Y-110115000D03*
X118498000Y-82865000D03*
X168848000Y-83215000D03*
X146048000Y-114315000D03*
X117588858Y-121799142D03*
X121073000Y-121815000D03*
X168848000Y-85141500D03*
X168348000Y-86465000D03*
X154112869Y-94191500D03*
X169548000Y-111065000D03*
X167598000Y-111065000D03*
X153167368Y-94165000D03*
X122348000Y-88865000D03*
X123098000Y-86865000D03*
M02*
