M48
; DRILL file {KiCad (6.0.0-0)} date Tuesday, August 16, 2022 at 07:59:54 PM
; FORMAT={-:-/ absolute / inch / decimal}
; #@! TF.CreationDate,2022-08-16T19:59:54-06:00
; #@! TF.GenerationSoftware,Kicad,Pcbnew,(6.0.0-0)
; #@! TF.FileFunction,Plated,1,2,PTH
FMAT,2
INCH
; #@! TA.AperFunction,Plated,PTH,ViaDrill
T1C0.0118
; #@! TA.AperFunction,Plated,PTH,ComponentDrill
T2C0.0157
; #@! TA.AperFunction,Plated,PTH,ComponentDrill
T3C0.0236
; #@! TA.AperFunction,Plated,PTH,ComponentDrill
T4C0.0315
; #@! TA.AperFunction,Plated,PTH,ComponentDrill
T5C0.0394
; #@! TA.AperFunction,Plated,PTH,ComponentDrill
T6C0.0400
; #@! TA.AperFunction,Plated,PTH,ComponentDrill
T7C0.0630
; #@! TA.AperFunction,Plated,PTH,ComponentDrill
T8C0.1200
%
G90
G05
T1
X5.0393Y-3.29
X5.3582Y-3.6404
X5.3976Y-3.5183
X5.4094Y-3.0813
X5.4133Y-3.4553
X5.433Y-3.5183
X5.4724Y-3.6167
X5.5629Y-3.6404
X5.6613Y-3.601
X5.7283Y-4.597
X5.7361Y-3.1994
X5.7794Y-3.8844
X6.0117Y-3.0734
X6.059Y-3.1994
X6.1338Y-3.7663
X6.1417Y-4.3884
X6.1771Y-3.4317
X6.1771Y-3.6167
X6.1771Y-3.912
X6.1968Y-4.3923
X6.244Y-3.5341
X6.3031Y-4.3018
X6.4113Y-3.4888
X6.4822Y-3.5124
X6.6023Y-3.4907
X6.6062Y-3.2939
X6.6456Y-4.3451
X6.6476Y-4.5045
X6.6476Y-4.4258
X6.685Y-3.3569
X6.7125Y-3.6404
X6.7214Y-3.8411
X6.8592Y-3.8411
T2
X6.7588Y-3.7752
X6.7588Y-3.8087
X6.7588Y-3.8421
X6.7588Y-3.8756
X6.7588Y-3.9091
X6.7588Y-3.9425
X6.7588Y-3.976
X6.7588Y-4.0094
X6.8119Y-3.7752
X6.8119Y-3.8087
X6.8119Y-3.8421
X6.8119Y-3.8756
X6.8119Y-3.9091
X6.8119Y-3.9425
X6.8119Y-3.976
X6.8119Y-4.0094
T4
X5.1625Y-3.2872
X5.1625Y-3.3872
X5.1625Y-4.2872
X5.1625Y-4.3872
X5.2625Y-3.2872
X5.2625Y-3.3872
X5.2625Y-4.2872
X5.2625Y-4.3872
X5.3625Y-3.2872
X5.3625Y-3.3872
X5.3625Y-4.2872
X5.3625Y-4.3872
X5.4625Y-3.2872
X5.4625Y-3.3872
X5.4625Y-4.2872
X5.4625Y-4.3872
X5.5625Y-3.2872
X5.5625Y-3.3872
X5.5625Y-4.2872
X5.5625Y-4.3872
X5.6625Y-3.2872
X5.6625Y-3.3872
X5.6625Y-4.2872
X5.6625Y-4.3872
X5.7625Y-3.2872
X5.7625Y-3.3872
X5.7625Y-4.2872
X5.7625Y-4.3872
X5.8625Y-3.2872
X5.8625Y-3.3872
X5.8625Y-4.2872
X5.8625Y-4.3872
X5.9625Y-3.2872
X5.9625Y-3.3872
X5.9625Y-4.2872
X5.9625Y-4.3872
X6.0625Y-3.2872
X6.0625Y-3.3872
X6.0625Y-4.2872
X6.0625Y-4.3872
T5
X4.5136Y-3.8431
X4.5136Y-3.9431
X4.5136Y-4.0431
X4.5136Y-4.1431
X4.5136Y-4.2431
X4.5136Y-4.3431
X4.6136Y-3.8431
X4.6136Y-3.9431
X4.6136Y-4.0431
X4.6136Y-4.1431
X4.6136Y-4.2431
X4.6136Y-4.3431
X5.7291Y-4.6876
X5.8291Y-4.6876
X5.9291Y-4.6876
T6
X5.11Y-2.975
X5.21Y-2.975
X5.31Y-2.975
X5.41Y-2.975
X5.47Y-4.875
X5.51Y-2.975
X5.57Y-4.875
X5.61Y-2.975
X5.67Y-4.875
X5.71Y-2.975
X5.77Y-4.875
X5.81Y-2.975
X5.87Y-4.875
X5.91Y-2.975
X5.97Y-4.875
X6.01Y-2.975
X6.07Y-4.875
X6.17Y-2.975
X6.17Y-4.875
X6.27Y-2.975
X6.37Y-2.975
X6.37Y-4.875
X6.47Y-2.975
X6.47Y-4.875
X6.57Y-2.975
X6.57Y-4.875
X6.67Y-2.975
X6.67Y-4.875
X6.77Y-2.975
X6.77Y-4.875
X6.87Y-2.975
X6.87Y-4.875
T7
X5.1613Y-4.8451
T8
X4.92Y-4.875
X4.97Y-2.975
T3
G00X6.7678Y-3.722
M15
G01X6.8269Y-3.722
M16
G05
G00X6.7678Y-4.0626
M15
G01X6.8269Y-4.0626
M16
G05
G00X6.9147Y-3.722
M15
G01X6.9462Y-3.722
M16
G05
G00X6.9147Y-4.0626
M15
G01X6.9462Y-4.0626
M16
G05
T0
M30
