%TF.GenerationSoftware,KiCad,Pcbnew,(6.0.0-0)*%
%TF.CreationDate,2022-08-16T19:59:54-06:00*%
%TF.ProjectId,FlippyControl,466c6970-7079-4436-9f6e-74726f6c2e6b,A*%
%TF.SameCoordinates,Original*%
%TF.FileFunction,Profile,NP*%
%FSLAX46Y46*%
G04 Gerber Fmt 4.6, Leading zero omitted, Abs format (unit mm)*
G04 Created by KiCad (PCBNEW (6.0.0-0)) date 2022-08-16 19:59:54*
%MOMM*%
%LPD*%
G01*
G04 APERTURE LIST*
%TA.AperFunction,Profile*%
%ADD10C,0.150000*%
%TD*%
G04 APERTURE END LIST*
D10*
X175598000Y-106219000D02*
X179578000Y-106219000D01*
X179578000Y-123795000D02*
X179578000Y-118665000D01*
X171153000Y-115617000D02*
X178392000Y-115617000D01*
X171223000Y-82089877D02*
X178462000Y-82089877D01*
X178392000Y-109267000D02*
X178392000Y-115617000D01*
X173128000Y-79041877D02*
X173128000Y-78025877D01*
X173128000Y-91487877D02*
X171223000Y-91487877D01*
X179578000Y-75565000D02*
X177128000Y-73025000D01*
X171153000Y-106219000D02*
X171153000Y-109267000D01*
X111028000Y-123780000D02*
X113568000Y-126350000D01*
X175668000Y-91465000D02*
X175668000Y-92503877D01*
X173128000Y-92503877D02*
X173128000Y-91487877D01*
X171223000Y-88439877D02*
X171223000Y-91487877D01*
X173058000Y-119681000D02*
X173058000Y-118665000D01*
X175598000Y-105203000D02*
X175598000Y-106219000D01*
X111028000Y-75650000D02*
X113568000Y-73080000D01*
X171223000Y-88439877D02*
X178462000Y-88439877D01*
X171153000Y-109267000D02*
X178392000Y-109267000D01*
X173058000Y-118665000D02*
X171153000Y-118665000D01*
X171153000Y-115617000D02*
X171153000Y-118665000D01*
X175668000Y-78025877D02*
X175668000Y-79041877D01*
X173128000Y-78025877D02*
X175668000Y-78025877D01*
X173058000Y-106219000D02*
X173058000Y-105203000D01*
X175668000Y-79041877D02*
X179578000Y-79041877D01*
X173128000Y-79041877D02*
X171223000Y-79041877D01*
X175598000Y-118665000D02*
X179578000Y-118665000D01*
X175668000Y-91465000D02*
X179578000Y-91465000D01*
X173128000Y-92503877D02*
X175668000Y-92503877D01*
X177038000Y-126365000D02*
X179578000Y-123795000D01*
X111028000Y-75650000D02*
X111028000Y-123780000D01*
X175598000Y-118665000D02*
X175598000Y-119681000D01*
X179578000Y-79041877D02*
X179578000Y-75565000D01*
X173058000Y-119681000D02*
X175598000Y-119681000D01*
X179578000Y-106219000D02*
X179578000Y-91465000D01*
X171223000Y-79041877D02*
X171223000Y-82089877D01*
X178462000Y-82089877D02*
X178462000Y-88439877D01*
X173058000Y-106219000D02*
X171153000Y-106219000D01*
X113568000Y-126350000D02*
X177038000Y-126365000D01*
X173058000Y-105203000D02*
X175598000Y-105203000D01*
X177128000Y-73025000D02*
X113568000Y-73080000D01*
M02*
