%TF.GenerationSoftware,KiCad,Pcbnew,(6.0.0-0)*%
%TF.CreationDate,2022-08-16T19:59:54-06:00*%
%TF.ProjectId,FlippyControl,466c6970-7079-4436-9f6e-74726f6c2e6b,A*%
%TF.SameCoordinates,Original*%
%TF.FileFunction,Soldermask,Bot*%
%TF.FilePolarity,Negative*%
%FSLAX46Y46*%
G04 Gerber Fmt 4.6, Leading zero omitted, Abs format (unit mm)*
G04 Created by KiCad (PCBNEW (6.0.0-0)) date 2022-08-16 19:59:54*
%MOMM*%
%LPD*%
G01*
G04 APERTURE LIST*
G04 Aperture macros list*
%AMRoundRect*
0 Rectangle with rounded corners*
0 $1 Rounding radius*
0 $2 $3 $4 $5 $6 $7 $8 $9 X,Y pos of 4 corners*
0 Add a 4 corners polygon primitive as box body*
4,1,4,$2,$3,$4,$5,$6,$7,$8,$9,$2,$3,0*
0 Add four circle primitives for the rounded corners*
1,1,$1+$1,$2,$3*
1,1,$1+$1,$4,$5*
1,1,$1+$1,$6,$7*
1,1,$1+$1,$8,$9*
0 Add four rect primitives between the rounded corners*
20,1,$1+$1,$2,$3,$4,$5,0*
20,1,$1+$1,$4,$5,$6,$7,0*
20,1,$1+$1,$6,$7,$8,$9,0*
20,1,$1+$1,$8,$9,$2,$3,0*%
G04 Aperture macros list end*
%ADD10O,1.827200X2.132000*%
%ADD11C,4.164000*%
%ADD12C,1.500000*%
%ADD13C,2.900000*%
%ADD14O,0.800000X0.700000*%
%ADD15O,2.500000X1.000000*%
%ADD16O,1.800000X1.000000*%
%ADD17RoundRect,0.300000X-0.600000X-0.600000X0.600000X-0.600000X0.600000X0.600000X-0.600000X0.600000X0*%
%ADD18C,1.800000*%
%ADD19RoundRect,0.050000X-3.799586X0.649986X-3.799586X-0.649986X3.799586X-0.649986X3.799586X0.649986X0*%
%ADD20RoundRect,0.050000X-0.850000X0.850000X-0.850000X-0.850000X0.850000X-0.850000X0.850000X0.850000X0*%
%ADD21O,1.800000X1.800000*%
%ADD22C,3.100000*%
%ADD23C,0.700000*%
G04 APERTURE END LIST*
D10*
%TO.C,P1*%
X138938000Y-123825000D03*
X141478000Y-123825000D03*
X144018000Y-123825000D03*
X146558000Y-123825000D03*
X149098000Y-123825000D03*
X151638000Y-123825000D03*
X154178000Y-123825000D03*
X156718000Y-123825000D03*
%TD*%
%TO.C,P2*%
X161798000Y-123825000D03*
X164338000Y-123825000D03*
X166878000Y-123825000D03*
X169418000Y-123825000D03*
X171958000Y-123825000D03*
X174498000Y-123825000D03*
%TD*%
%TO.C,P3*%
X129794000Y-75565000D03*
X132334000Y-75565000D03*
X134874000Y-75565000D03*
X137414000Y-75565000D03*
X139954000Y-75565000D03*
X142494000Y-75565000D03*
X145034000Y-75565000D03*
X147574000Y-75565000D03*
X150114000Y-75565000D03*
X152654000Y-75565000D03*
%TD*%
%TO.C,P4*%
X156718000Y-75565000D03*
X159258000Y-75565000D03*
X161798000Y-75565000D03*
X164338000Y-75565000D03*
X166878000Y-75565000D03*
X169418000Y-75565000D03*
X171958000Y-75565000D03*
X174498000Y-75565000D03*
%TD*%
D11*
%TO.C,P5*%
X124968000Y-123825000D03*
%TD*%
%TO.C,P7*%
X126238000Y-75565000D03*
%TD*%
D12*
%TO.C,U1*%
X131128000Y-111435000D03*
X131128000Y-108895000D03*
X133668000Y-111435000D03*
X133668000Y-108895000D03*
X136208000Y-111435000D03*
X136208000Y-108895000D03*
X138748000Y-111435000D03*
X138748000Y-108895000D03*
X141288000Y-111435000D03*
X141288000Y-108895000D03*
X143828000Y-111435000D03*
X143828000Y-108895000D03*
X146368000Y-111435000D03*
X146368000Y-108895000D03*
X148908000Y-111435000D03*
X148908000Y-108895000D03*
X151448000Y-111435000D03*
X151448000Y-108895000D03*
X153988000Y-111435000D03*
X153988000Y-108895000D03*
X131128000Y-86035000D03*
X131128000Y-83495000D03*
X133668000Y-86035000D03*
X133668000Y-83495000D03*
X136208000Y-86035000D03*
X136208000Y-83495000D03*
X138748000Y-86035000D03*
X138748000Y-83495000D03*
X141288000Y-86035000D03*
X141288000Y-83495000D03*
X143828000Y-86035000D03*
X143828000Y-83495000D03*
X146368000Y-86035000D03*
X146368000Y-83495000D03*
X148908000Y-86035000D03*
X148908000Y-83495000D03*
X151448000Y-86035000D03*
X151448000Y-83495000D03*
X153988000Y-86035000D03*
X153988000Y-83495000D03*
%TD*%
D13*
%TO.C,TP7*%
X131098000Y-123065000D03*
%TD*%
D14*
%TO.C,J4*%
X171673000Y-101840000D03*
X171673000Y-100990000D03*
X171673000Y-100140000D03*
X171673000Y-99290000D03*
X171673000Y-98440000D03*
X171673000Y-97590000D03*
X171673000Y-96740000D03*
X171673000Y-95890000D03*
X173023000Y-95890000D03*
X173023000Y-96740000D03*
X173023000Y-97590000D03*
X173023000Y-98440000D03*
X173023000Y-99290000D03*
X173023000Y-100140000D03*
X173023000Y-100990000D03*
X173023000Y-101840000D03*
D15*
X172653000Y-94540000D03*
D16*
X176033000Y-94540000D03*
D15*
X172653000Y-103190000D03*
D16*
X176033000Y-103190000D03*
%TD*%
D17*
%TO.C,J3*%
X114645500Y-97615000D03*
D18*
X117185500Y-97615000D03*
X114645500Y-100155000D03*
X117185500Y-100155000D03*
X114645500Y-102695000D03*
X117185500Y-102695000D03*
X114645500Y-105235000D03*
X117185500Y-105235000D03*
X114645500Y-107775000D03*
X117185500Y-107775000D03*
X114645500Y-110315000D03*
X117185500Y-110315000D03*
%TD*%
D19*
%TO.C,J1*%
X174398000Y-85264877D03*
X174398000Y-83264881D03*
X174398000Y-87265000D03*
%TD*%
D20*
%TO.C,JP1*%
X150598000Y-119065000D03*
D21*
X148058000Y-119065000D03*
X145518000Y-119065000D03*
%TD*%
D19*
%TO.C,J2*%
X174298000Y-112415000D03*
X174298000Y-110415004D03*
X174298000Y-114415123D03*
%TD*%
D22*
%TO.C,TP4*%
X165098000Y-102565000D03*
%TD*%
%TO.C,TP6*%
X165098000Y-98165000D03*
%TD*%
%TO.C,TP2*%
X165098000Y-93765000D03*
%TD*%
D23*
X170498000Y-92465000D03*
X127998000Y-83565000D03*
X137398000Y-78265000D03*
X156898000Y-99365000D03*
X156898000Y-87165000D03*
X156898000Y-91865000D03*
X155998000Y-111465000D03*
X164648000Y-89215000D03*
X136098000Y-92465000D03*
X152698000Y-78065000D03*
X168798000Y-110365000D03*
X168847877Y-114415123D03*
X157398000Y-111565000D03*
X168848000Y-112415000D03*
X153898000Y-81265000D03*
X167698000Y-88665000D03*
X169798123Y-85264877D03*
X145698000Y-81265000D03*
X158598000Y-89765000D03*
X160098000Y-109265000D03*
X143798000Y-91465000D03*
X137498000Y-87765000D03*
X141298000Y-92465000D03*
X137998000Y-89365000D03*
X138998000Y-91865000D03*
X137098000Y-89365000D03*
X145498000Y-116765000D03*
X155798000Y-95665000D03*
X146798000Y-98665000D03*
X162848000Y-88615000D03*
X167798000Y-83665000D03*
X174223000Y-97565000D03*
X170723000Y-97565000D03*
G36*
X171920724Y-101274478D02*
G01*
X171921674Y-101276239D01*
X171920981Y-101277696D01*
X171912177Y-101285282D01*
X171911699Y-101285588D01*
X171878299Y-101300774D01*
X171877640Y-101300710D01*
X171877402Y-101301210D01*
X171823974Y-101347351D01*
X171804031Y-101414852D01*
X171823751Y-101482423D01*
X171871407Y-101524231D01*
X171872050Y-101526125D01*
X171870731Y-101527628D01*
X171869425Y-101527621D01*
X171782752Y-101497183D01*
X171722908Y-101492000D01*
X171623166Y-101492000D01*
X171510286Y-101510788D01*
X171470855Y-101532064D01*
X171469989Y-101532039D01*
X171469479Y-101532807D01*
X171427275Y-101555579D01*
X171425276Y-101555522D01*
X171424326Y-101553761D01*
X171425019Y-101552304D01*
X171433823Y-101544718D01*
X171434301Y-101544412D01*
X171467701Y-101529226D01*
X171468360Y-101529290D01*
X171468598Y-101528790D01*
X171522026Y-101482649D01*
X171541969Y-101415148D01*
X171522249Y-101347577D01*
X171474593Y-101305769D01*
X171473950Y-101303875D01*
X171475269Y-101302372D01*
X171476575Y-101302379D01*
X171563248Y-101332817D01*
X171623092Y-101338000D01*
X171722834Y-101338000D01*
X171835714Y-101319212D01*
X171875145Y-101297936D01*
X171876011Y-101297961D01*
X171876521Y-101297193D01*
X171918725Y-101274421D01*
X171920724Y-101274478D01*
G37*
G36*
X173270724Y-101274478D02*
G01*
X173271674Y-101276239D01*
X173270981Y-101277696D01*
X173262177Y-101285282D01*
X173261699Y-101285588D01*
X173228299Y-101300774D01*
X173227640Y-101300710D01*
X173227402Y-101301210D01*
X173173974Y-101347351D01*
X173154031Y-101414852D01*
X173173751Y-101482423D01*
X173221407Y-101524231D01*
X173222050Y-101526125D01*
X173220731Y-101527628D01*
X173219425Y-101527621D01*
X173132752Y-101497183D01*
X173072908Y-101492000D01*
X172973166Y-101492000D01*
X172860286Y-101510788D01*
X172820855Y-101532064D01*
X172819989Y-101532039D01*
X172819479Y-101532807D01*
X172777275Y-101555579D01*
X172775276Y-101555522D01*
X172774326Y-101553761D01*
X172775019Y-101552304D01*
X172783823Y-101544718D01*
X172784301Y-101544412D01*
X172817701Y-101529226D01*
X172818360Y-101529290D01*
X172818598Y-101528790D01*
X172872026Y-101482649D01*
X172891969Y-101415148D01*
X172872249Y-101347577D01*
X172824593Y-101305769D01*
X172823950Y-101303875D01*
X172825269Y-101302372D01*
X172826575Y-101302379D01*
X172913248Y-101332817D01*
X172973092Y-101338000D01*
X173072834Y-101338000D01*
X173185714Y-101319212D01*
X173225145Y-101297936D01*
X173226011Y-101297961D01*
X173226521Y-101297193D01*
X173268725Y-101274421D01*
X173270724Y-101274478D01*
G37*
G36*
X171920724Y-100424478D02*
G01*
X171921674Y-100426239D01*
X171920981Y-100427696D01*
X171912177Y-100435282D01*
X171911699Y-100435588D01*
X171878299Y-100450774D01*
X171877640Y-100450710D01*
X171877402Y-100451210D01*
X171823974Y-100497351D01*
X171804031Y-100564852D01*
X171823751Y-100632423D01*
X171871407Y-100674231D01*
X171872050Y-100676125D01*
X171870731Y-100677628D01*
X171869425Y-100677621D01*
X171782752Y-100647183D01*
X171722908Y-100642000D01*
X171623166Y-100642000D01*
X171510286Y-100660788D01*
X171470855Y-100682064D01*
X171469989Y-100682039D01*
X171469479Y-100682807D01*
X171427275Y-100705579D01*
X171425276Y-100705522D01*
X171424326Y-100703761D01*
X171425019Y-100702304D01*
X171433823Y-100694718D01*
X171434301Y-100694412D01*
X171467701Y-100679226D01*
X171468360Y-100679290D01*
X171468598Y-100678790D01*
X171522026Y-100632649D01*
X171541969Y-100565148D01*
X171522249Y-100497577D01*
X171474593Y-100455769D01*
X171473950Y-100453875D01*
X171475269Y-100452372D01*
X171476575Y-100452379D01*
X171563248Y-100482817D01*
X171623092Y-100488000D01*
X171722834Y-100488000D01*
X171835714Y-100469212D01*
X171875145Y-100447936D01*
X171876011Y-100447961D01*
X171876521Y-100447193D01*
X171918725Y-100424421D01*
X171920724Y-100424478D01*
G37*
G36*
X173270724Y-100424478D02*
G01*
X173271674Y-100426239D01*
X173270981Y-100427696D01*
X173262177Y-100435282D01*
X173261699Y-100435588D01*
X173228299Y-100450774D01*
X173227640Y-100450710D01*
X173227402Y-100451210D01*
X173173974Y-100497351D01*
X173154031Y-100564852D01*
X173173751Y-100632423D01*
X173221407Y-100674231D01*
X173222050Y-100676125D01*
X173220731Y-100677628D01*
X173219425Y-100677621D01*
X173132752Y-100647183D01*
X173072908Y-100642000D01*
X172973166Y-100642000D01*
X172860286Y-100660788D01*
X172820855Y-100682064D01*
X172819989Y-100682039D01*
X172819479Y-100682807D01*
X172777275Y-100705579D01*
X172775276Y-100705522D01*
X172774326Y-100703761D01*
X172775019Y-100702304D01*
X172783823Y-100694718D01*
X172784301Y-100694412D01*
X172817701Y-100679226D01*
X172818360Y-100679290D01*
X172818598Y-100678790D01*
X172872026Y-100632649D01*
X172891969Y-100565148D01*
X172872249Y-100497577D01*
X172824593Y-100455769D01*
X172823950Y-100453875D01*
X172825269Y-100452372D01*
X172826575Y-100452379D01*
X172913248Y-100482817D01*
X172973092Y-100488000D01*
X173072834Y-100488000D01*
X173185714Y-100469212D01*
X173225145Y-100447936D01*
X173226011Y-100447961D01*
X173226521Y-100447193D01*
X173268725Y-100424421D01*
X173270724Y-100424478D01*
G37*
G36*
X171920724Y-99574478D02*
G01*
X171921674Y-99576239D01*
X171920981Y-99577696D01*
X171912177Y-99585282D01*
X171911699Y-99585588D01*
X171878299Y-99600774D01*
X171877640Y-99600710D01*
X171877402Y-99601210D01*
X171823974Y-99647351D01*
X171804031Y-99714852D01*
X171823751Y-99782423D01*
X171871407Y-99824231D01*
X171872050Y-99826125D01*
X171870731Y-99827628D01*
X171869425Y-99827621D01*
X171782752Y-99797183D01*
X171722908Y-99792000D01*
X171623166Y-99792000D01*
X171510286Y-99810788D01*
X171470855Y-99832064D01*
X171469989Y-99832039D01*
X171469479Y-99832807D01*
X171427275Y-99855579D01*
X171425276Y-99855522D01*
X171424326Y-99853761D01*
X171425019Y-99852304D01*
X171433823Y-99844718D01*
X171434301Y-99844412D01*
X171467701Y-99829226D01*
X171468360Y-99829290D01*
X171468598Y-99828790D01*
X171522026Y-99782649D01*
X171541969Y-99715148D01*
X171522249Y-99647577D01*
X171474593Y-99605769D01*
X171473950Y-99603875D01*
X171475269Y-99602372D01*
X171476575Y-99602379D01*
X171563248Y-99632817D01*
X171623092Y-99638000D01*
X171722834Y-99638000D01*
X171835714Y-99619212D01*
X171875145Y-99597936D01*
X171876011Y-99597961D01*
X171876521Y-99597193D01*
X171918725Y-99574421D01*
X171920724Y-99574478D01*
G37*
G36*
X173270724Y-99574478D02*
G01*
X173271674Y-99576239D01*
X173270981Y-99577696D01*
X173262177Y-99585282D01*
X173261699Y-99585588D01*
X173228299Y-99600774D01*
X173227640Y-99600710D01*
X173227402Y-99601210D01*
X173173974Y-99647351D01*
X173154031Y-99714852D01*
X173173751Y-99782423D01*
X173221407Y-99824231D01*
X173222050Y-99826125D01*
X173220731Y-99827628D01*
X173219425Y-99827621D01*
X173132752Y-99797183D01*
X173072908Y-99792000D01*
X172973166Y-99792000D01*
X172860286Y-99810788D01*
X172820855Y-99832064D01*
X172819989Y-99832039D01*
X172819479Y-99832807D01*
X172777275Y-99855579D01*
X172775276Y-99855522D01*
X172774326Y-99853761D01*
X172775019Y-99852304D01*
X172783823Y-99844718D01*
X172784301Y-99844412D01*
X172817701Y-99829226D01*
X172818360Y-99829290D01*
X172818598Y-99828790D01*
X172872026Y-99782649D01*
X172891969Y-99715148D01*
X172872249Y-99647577D01*
X172824593Y-99605769D01*
X172823950Y-99603875D01*
X172825269Y-99602372D01*
X172826575Y-99602379D01*
X172913248Y-99632817D01*
X172973092Y-99638000D01*
X173072834Y-99638000D01*
X173185714Y-99619212D01*
X173225145Y-99597936D01*
X173226011Y-99597961D01*
X173226521Y-99597193D01*
X173268725Y-99574421D01*
X173270724Y-99574478D01*
G37*
G36*
X171920724Y-98724478D02*
G01*
X171921674Y-98726239D01*
X171920981Y-98727696D01*
X171912177Y-98735282D01*
X171911699Y-98735588D01*
X171878299Y-98750774D01*
X171877640Y-98750710D01*
X171877402Y-98751210D01*
X171823974Y-98797351D01*
X171804031Y-98864852D01*
X171823751Y-98932423D01*
X171871407Y-98974231D01*
X171872050Y-98976125D01*
X171870731Y-98977628D01*
X171869425Y-98977621D01*
X171782752Y-98947183D01*
X171722908Y-98942000D01*
X171623166Y-98942000D01*
X171510286Y-98960788D01*
X171470855Y-98982064D01*
X171469989Y-98982039D01*
X171469479Y-98982807D01*
X171427275Y-99005579D01*
X171425276Y-99005522D01*
X171424326Y-99003761D01*
X171425019Y-99002304D01*
X171433823Y-98994718D01*
X171434301Y-98994412D01*
X171467701Y-98979226D01*
X171468360Y-98979290D01*
X171468598Y-98978790D01*
X171522026Y-98932649D01*
X171541969Y-98865148D01*
X171522249Y-98797577D01*
X171474593Y-98755769D01*
X171473950Y-98753875D01*
X171475269Y-98752372D01*
X171476575Y-98752379D01*
X171563248Y-98782817D01*
X171623092Y-98788000D01*
X171722834Y-98788000D01*
X171835714Y-98769212D01*
X171875145Y-98747936D01*
X171876011Y-98747961D01*
X171876521Y-98747193D01*
X171918725Y-98724421D01*
X171920724Y-98724478D01*
G37*
G36*
X173270724Y-98724478D02*
G01*
X173271674Y-98726239D01*
X173270981Y-98727696D01*
X173262177Y-98735282D01*
X173261699Y-98735588D01*
X173228299Y-98750774D01*
X173227640Y-98750710D01*
X173227402Y-98751210D01*
X173173974Y-98797351D01*
X173154031Y-98864852D01*
X173173751Y-98932423D01*
X173221407Y-98974231D01*
X173222050Y-98976125D01*
X173220731Y-98977628D01*
X173219425Y-98977621D01*
X173132752Y-98947183D01*
X173072908Y-98942000D01*
X172973166Y-98942000D01*
X172860286Y-98960788D01*
X172820855Y-98982064D01*
X172819989Y-98982039D01*
X172819479Y-98982807D01*
X172777275Y-99005579D01*
X172775276Y-99005522D01*
X172774326Y-99003761D01*
X172775019Y-99002304D01*
X172783823Y-98994718D01*
X172784301Y-98994412D01*
X172817701Y-98979226D01*
X172818360Y-98979290D01*
X172818598Y-98978790D01*
X172872026Y-98932649D01*
X172891969Y-98865148D01*
X172872249Y-98797577D01*
X172824593Y-98755769D01*
X172823950Y-98753875D01*
X172825269Y-98752372D01*
X172826575Y-98752379D01*
X172913248Y-98782817D01*
X172973092Y-98788000D01*
X173072834Y-98788000D01*
X173185714Y-98769212D01*
X173225145Y-98747936D01*
X173226011Y-98747961D01*
X173226521Y-98747193D01*
X173268725Y-98724421D01*
X173270724Y-98724478D01*
G37*
G36*
X171920724Y-97874478D02*
G01*
X171921674Y-97876239D01*
X171920981Y-97877696D01*
X171912177Y-97885282D01*
X171911699Y-97885588D01*
X171878299Y-97900774D01*
X171877640Y-97900710D01*
X171877402Y-97901210D01*
X171823974Y-97947351D01*
X171804031Y-98014852D01*
X171823751Y-98082423D01*
X171871407Y-98124231D01*
X171872050Y-98126125D01*
X171870731Y-98127628D01*
X171869425Y-98127621D01*
X171782752Y-98097183D01*
X171722908Y-98092000D01*
X171623166Y-98092000D01*
X171510286Y-98110788D01*
X171470855Y-98132064D01*
X171469989Y-98132039D01*
X171469479Y-98132807D01*
X171427275Y-98155579D01*
X171425276Y-98155522D01*
X171424326Y-98153761D01*
X171425019Y-98152304D01*
X171433823Y-98144718D01*
X171434301Y-98144412D01*
X171467701Y-98129226D01*
X171468360Y-98129290D01*
X171468598Y-98128790D01*
X171522026Y-98082649D01*
X171541969Y-98015148D01*
X171522249Y-97947577D01*
X171474593Y-97905769D01*
X171473950Y-97903875D01*
X171475269Y-97902372D01*
X171476575Y-97902379D01*
X171563248Y-97932817D01*
X171623092Y-97938000D01*
X171722834Y-97938000D01*
X171835714Y-97919212D01*
X171875145Y-97897936D01*
X171876011Y-97897961D01*
X171876521Y-97897193D01*
X171918725Y-97874421D01*
X171920724Y-97874478D01*
G37*
G36*
X173270724Y-97874478D02*
G01*
X173271674Y-97876239D01*
X173270981Y-97877696D01*
X173262177Y-97885282D01*
X173261699Y-97885588D01*
X173228299Y-97900774D01*
X173227640Y-97900710D01*
X173227402Y-97901210D01*
X173173974Y-97947351D01*
X173154031Y-98014852D01*
X173173751Y-98082423D01*
X173221407Y-98124231D01*
X173222050Y-98126125D01*
X173220731Y-98127628D01*
X173219425Y-98127621D01*
X173132752Y-98097183D01*
X173072908Y-98092000D01*
X172973166Y-98092000D01*
X172860286Y-98110788D01*
X172820855Y-98132064D01*
X172819989Y-98132039D01*
X172819479Y-98132807D01*
X172777275Y-98155579D01*
X172775276Y-98155522D01*
X172774326Y-98153761D01*
X172775019Y-98152304D01*
X172783823Y-98144718D01*
X172784301Y-98144412D01*
X172817701Y-98129226D01*
X172818360Y-98129290D01*
X172818598Y-98128790D01*
X172872026Y-98082649D01*
X172891969Y-98015148D01*
X172872249Y-97947577D01*
X172824593Y-97905769D01*
X172823950Y-97903875D01*
X172825269Y-97902372D01*
X172826575Y-97902379D01*
X172913248Y-97932817D01*
X172973092Y-97938000D01*
X173072834Y-97938000D01*
X173185714Y-97919212D01*
X173225145Y-97897936D01*
X173226011Y-97897961D01*
X173226521Y-97897193D01*
X173268725Y-97874421D01*
X173270724Y-97874478D01*
G37*
G36*
X171319947Y-97424759D02*
G01*
X171319995Y-97426477D01*
X171297101Y-97478261D01*
X171295621Y-97479341D01*
X171295924Y-97479605D01*
X171295862Y-97481065D01*
X171285960Y-97503462D01*
X171276101Y-97617304D01*
X171293655Y-97687971D01*
X171293102Y-97689893D01*
X171291161Y-97690375D01*
X171290024Y-97689522D01*
X171252853Y-97630756D01*
X171189041Y-97601056D01*
X171119301Y-97610571D01*
X171065599Y-97656430D01*
X171058400Y-97669156D01*
X171056677Y-97670171D01*
X171054936Y-97669186D01*
X171054684Y-97667858D01*
X171070975Y-97565000D01*
X171055423Y-97466805D01*
X171056139Y-97464938D01*
X171058115Y-97464625D01*
X171059219Y-97465664D01*
X171065014Y-97478410D01*
X171111213Y-97531906D01*
X171178715Y-97551849D01*
X171246282Y-97532131D01*
X171292524Y-97478944D01*
X171293647Y-97478557D01*
X171293400Y-97476747D01*
X171298702Y-97462676D01*
X171304537Y-97443165D01*
X171304775Y-97442650D01*
X171316488Y-97424580D01*
X171318269Y-97423671D01*
X171319947Y-97424759D01*
G37*
G36*
X173270724Y-97024478D02*
G01*
X173271674Y-97026239D01*
X173270981Y-97027696D01*
X173262177Y-97035282D01*
X173261699Y-97035588D01*
X173228299Y-97050774D01*
X173227640Y-97050710D01*
X173227402Y-97051210D01*
X173173974Y-97097351D01*
X173154031Y-97164852D01*
X173173751Y-97232423D01*
X173221407Y-97274231D01*
X173222050Y-97276125D01*
X173220731Y-97277628D01*
X173219425Y-97277621D01*
X173132752Y-97247183D01*
X173072908Y-97242000D01*
X172973166Y-97242000D01*
X172860286Y-97260788D01*
X172820855Y-97282064D01*
X172819989Y-97282039D01*
X172819479Y-97282807D01*
X172777275Y-97305579D01*
X172775276Y-97305522D01*
X172774326Y-97303761D01*
X172775019Y-97302304D01*
X172783823Y-97294718D01*
X172784301Y-97294412D01*
X172817701Y-97279226D01*
X172818360Y-97279290D01*
X172818598Y-97278790D01*
X172872026Y-97232649D01*
X172891969Y-97165148D01*
X172872249Y-97097577D01*
X172824593Y-97055769D01*
X172823950Y-97053875D01*
X172825269Y-97052372D01*
X172826575Y-97052379D01*
X172913248Y-97082817D01*
X172973092Y-97088000D01*
X173072834Y-97088000D01*
X173185714Y-97069212D01*
X173225145Y-97047936D01*
X173226011Y-97047961D01*
X173226521Y-97047193D01*
X173268725Y-97024421D01*
X173270724Y-97024478D01*
G37*
G36*
X171920724Y-97024478D02*
G01*
X171921674Y-97026239D01*
X171920981Y-97027696D01*
X171912177Y-97035282D01*
X171911699Y-97035588D01*
X171878299Y-97050774D01*
X171877640Y-97050710D01*
X171877402Y-97051210D01*
X171823974Y-97097351D01*
X171804031Y-97164852D01*
X171823751Y-97232423D01*
X171871407Y-97274231D01*
X171872050Y-97276125D01*
X171870731Y-97277628D01*
X171869425Y-97277621D01*
X171782752Y-97247183D01*
X171722908Y-97242000D01*
X171623166Y-97242000D01*
X171510286Y-97260788D01*
X171470855Y-97282064D01*
X171469989Y-97282039D01*
X171469479Y-97282807D01*
X171427275Y-97305579D01*
X171425276Y-97305522D01*
X171424326Y-97303761D01*
X171425019Y-97302304D01*
X171433823Y-97294718D01*
X171434301Y-97294412D01*
X171467701Y-97279226D01*
X171468360Y-97279290D01*
X171468598Y-97278790D01*
X171522026Y-97232649D01*
X171541969Y-97165148D01*
X171522249Y-97097577D01*
X171474593Y-97055769D01*
X171473950Y-97053875D01*
X171475269Y-97052372D01*
X171476575Y-97052379D01*
X171563248Y-97082817D01*
X171623092Y-97088000D01*
X171722834Y-97088000D01*
X171835714Y-97069212D01*
X171875145Y-97047936D01*
X171876011Y-97047961D01*
X171876521Y-97047193D01*
X171918725Y-97024421D01*
X171920724Y-97024478D01*
G37*
G36*
X171920724Y-96174478D02*
G01*
X171921674Y-96176239D01*
X171920981Y-96177696D01*
X171912177Y-96185282D01*
X171911699Y-96185588D01*
X171878299Y-96200774D01*
X171877640Y-96200710D01*
X171877402Y-96201210D01*
X171823974Y-96247351D01*
X171804031Y-96314852D01*
X171823751Y-96382423D01*
X171871407Y-96424231D01*
X171872050Y-96426125D01*
X171870731Y-96427628D01*
X171869425Y-96427621D01*
X171782752Y-96397183D01*
X171722908Y-96392000D01*
X171623166Y-96392000D01*
X171510286Y-96410788D01*
X171470855Y-96432064D01*
X171469989Y-96432039D01*
X171469479Y-96432807D01*
X171427275Y-96455579D01*
X171425276Y-96455522D01*
X171424326Y-96453761D01*
X171425019Y-96452304D01*
X171433823Y-96444718D01*
X171434301Y-96444412D01*
X171467701Y-96429226D01*
X171468360Y-96429290D01*
X171468598Y-96428790D01*
X171522026Y-96382649D01*
X171541969Y-96315148D01*
X171522249Y-96247577D01*
X171474593Y-96205769D01*
X171473950Y-96203875D01*
X171475269Y-96202372D01*
X171476575Y-96202379D01*
X171563248Y-96232817D01*
X171623092Y-96238000D01*
X171722834Y-96238000D01*
X171835714Y-96219212D01*
X171875145Y-96197936D01*
X171876011Y-96197961D01*
X171876521Y-96197193D01*
X171918725Y-96174421D01*
X171920724Y-96174478D01*
G37*
G36*
X173270724Y-96174478D02*
G01*
X173271674Y-96176239D01*
X173270981Y-96177696D01*
X173262177Y-96185282D01*
X173261699Y-96185588D01*
X173228299Y-96200774D01*
X173227640Y-96200710D01*
X173227402Y-96201210D01*
X173173974Y-96247351D01*
X173154031Y-96314852D01*
X173173751Y-96382423D01*
X173221407Y-96424231D01*
X173222050Y-96426125D01*
X173220731Y-96427628D01*
X173219425Y-96427621D01*
X173132752Y-96397183D01*
X173072908Y-96392000D01*
X172973166Y-96392000D01*
X172860286Y-96410788D01*
X172820855Y-96432064D01*
X172819989Y-96432039D01*
X172819479Y-96432807D01*
X172777275Y-96455579D01*
X172775276Y-96455522D01*
X172774326Y-96453761D01*
X172775019Y-96452304D01*
X172783823Y-96444718D01*
X172784301Y-96444412D01*
X172817701Y-96429226D01*
X172818360Y-96429290D01*
X172818598Y-96428790D01*
X172872026Y-96382649D01*
X172891969Y-96315148D01*
X172872249Y-96247577D01*
X172824593Y-96205769D01*
X172823950Y-96203875D01*
X172825269Y-96202372D01*
X172826575Y-96202379D01*
X172913248Y-96232817D01*
X172973092Y-96238000D01*
X173072834Y-96238000D01*
X173185714Y-96219212D01*
X173225145Y-96197936D01*
X173226011Y-96197961D01*
X173226521Y-96197193D01*
X173268725Y-96174421D01*
X173270724Y-96174478D01*
G37*
G36*
X137665592Y-89263145D02*
G01*
X137665926Y-89264601D01*
X137650025Y-89365000D01*
X137665654Y-89463681D01*
X137664938Y-89465548D01*
X137662962Y-89465861D01*
X137662149Y-89465283D01*
X137618009Y-89412891D01*
X137550759Y-89392126D01*
X137482950Y-89411019D01*
X137436410Y-89462780D01*
X137433500Y-89468787D01*
X137431845Y-89469910D01*
X137430045Y-89469038D01*
X137429725Y-89467602D01*
X137445975Y-89365000D01*
X137430352Y-89266357D01*
X137431068Y-89264490D01*
X137433044Y-89264177D01*
X137433841Y-89264737D01*
X137479950Y-89318128D01*
X137547451Y-89338071D01*
X137615022Y-89318351D01*
X137660927Y-89266023D01*
X137662141Y-89263438D01*
X137663782Y-89262295D01*
X137665592Y-89263145D01*
G37*
M02*
