M48
; DRILL file {KiCad (6.0.0-0)} date Tuesday, August 30, 2022 at 09:51:56 PM
; FORMAT={-:-/ absolute / inch / decimal}
; #@! TF.CreationDate,2022-08-30T21:51:56-06:00
; #@! TF.GenerationSoftware,Kicad,Pcbnew,(6.0.0-0)
; #@! TF.FileFunction,Plated,1,2,PTH
FMAT,2
INCH
; #@! TA.AperFunction,Plated,PTH,ViaDrill
T1C0.0118
; #@! TA.AperFunction,Plated,PTH,ComponentDrill
T2C0.0157
; #@! TA.AperFunction,Plated,PTH,ComponentDrill
T3C0.0236
; #@! TA.AperFunction,Plated,PTH,ComponentDrill
T4C0.0394
; #@! TA.AperFunction,Plated,PTH,ComponentDrill
T5C0.0400
; #@! TA.AperFunction,Plated,PTH,ComponentDrill
T6C0.0630
; #@! TA.AperFunction,Plated,PTH,ComponentDrill
T7C0.1200
%
G90
G05
T1
X4.6121Y-3.414
X4.6295Y-4.7952
X4.6653Y-3.2624
X4.7667Y-4.7959
X4.7932Y-3.1915
X4.8169Y-3.4986
X4.8188Y-3.9711
X4.8464Y-3.4199
X4.8828Y-3.4209
X5.2302Y-3.788
X5.4133Y-4.0793
X5.555Y-4.1738
X5.6102Y-4.1738
X5.6495Y-3.6246
X5.6574Y-4.288
X5.6731Y-3.7269
X5.683Y-4.0173
X5.7499Y-4.5006
X5.7972Y-3.7093
X5.8365Y-3.7073
X5.8759Y-3.7073
X6.0302Y-3.7073
X6.0674Y-3.7083
X6.248Y-3.414
X6.2499Y-3.6049
X6.3254Y-3.7873
X6.5806Y-4.0144
X6.5983Y-4.3352
X6.5983Y-4.3726
X6.6279Y-3.4041
X6.6476Y-3.2762
X6.6476Y-3.352
X6.6751Y-4.3726
X6.6928Y-3.3313
T2
X4.6761Y-4.6276
X4.6761Y-4.661
X4.6761Y-4.6945
X4.6761Y-4.728
X4.6761Y-4.7614
X4.6761Y-4.7949
X4.6761Y-4.8283
X4.6761Y-4.8618
X4.7293Y-4.6276
X4.7293Y-4.661
X4.7293Y-4.6945
X4.7293Y-4.728
X4.7293Y-4.7614
X4.7293Y-4.7949
X4.7293Y-4.8283
X4.7293Y-4.8618
T4
X4.5136Y-3.7939
X4.5136Y-3.8939
X4.5136Y-3.9939
X4.5136Y-4.0939
X4.5136Y-4.1939
X4.5136Y-4.2939
X4.6136Y-3.7939
X4.6136Y-3.8939
X4.6136Y-3.9939
X4.6136Y-4.0939
X4.6136Y-4.1939
X4.6136Y-4.2939
X4.9052Y-4.1866
X4.9074Y-4.3766
X4.983Y-3.8456
X4.983Y-3.9456
X5.0052Y-4.1866
X5.0074Y-4.3766
X5.0235Y-3.3071
X5.0235Y-3.4071
X5.083Y-3.8456
X5.083Y-3.9456
X5.1052Y-4.1866
X5.183Y-3.8456
X5.183Y-3.9456
X5.283Y-3.8456
X5.283Y-3.9456
X5.383Y-3.8456
X5.383Y-3.9456
X5.483Y-3.8456
X5.483Y-3.9456
X5.4987Y-3.3423
X5.4987Y-3.4423
X5.4987Y-4.3423
X5.4987Y-4.4423
X5.583Y-3.8456
X5.583Y-3.9456
X5.5987Y-3.3423
X5.5987Y-3.4423
X5.5987Y-4.3423
X5.5987Y-4.4423
X5.683Y-3.8456
X5.683Y-3.9456
X5.6987Y-3.3423
X5.6987Y-3.4423
X5.6987Y-4.3423
X5.6987Y-4.4423
X5.783Y-3.8456
X5.783Y-3.9456
X5.7987Y-3.3423
X5.7987Y-3.4423
X5.7987Y-4.3423
X5.7987Y-4.4423
X5.883Y-3.8456
X5.883Y-3.9456
X5.8987Y-3.3423
X5.8987Y-3.4423
X5.8987Y-4.3423
X5.8987Y-4.4423
X5.983Y-3.8456
X5.983Y-3.9456
X5.9987Y-3.3423
X5.9987Y-3.4423
X5.9987Y-4.3423
X5.9987Y-4.4423
X6.083Y-3.8456
X6.083Y-3.9456
X6.0987Y-3.3423
X6.0987Y-3.4423
X6.0987Y-4.3423
X6.0987Y-4.4423
X6.183Y-3.8456
X6.183Y-3.9456
X6.1987Y-3.3423
X6.1987Y-3.4423
X6.1987Y-4.3423
X6.1987Y-4.4423
X6.283Y-3.8456
X6.283Y-3.9456
X6.2987Y-3.3423
X6.2987Y-3.4423
X6.2987Y-4.3423
X6.2987Y-4.4423
X6.383Y-3.8456
X6.383Y-3.9456
X6.3987Y-3.3423
X6.3987Y-3.4423
X6.3987Y-4.3423
X6.3987Y-4.4423
X6.483Y-3.8456
X6.483Y-3.9456
X6.583Y-3.8456
X6.583Y-3.9456
X6.683Y-3.8456
X6.683Y-3.9456
X6.783Y-3.8456
X6.783Y-3.9456
X6.883Y-3.8456
X6.883Y-3.9456
T5
X5.11Y-2.975
X5.21Y-2.975
X5.31Y-2.975
X5.41Y-2.975
X5.47Y-4.875
X5.51Y-2.975
X5.57Y-4.875
X5.61Y-2.975
X5.67Y-4.875
X5.71Y-2.975
X5.77Y-4.875
X5.81Y-2.975
X5.87Y-4.875
X5.91Y-2.975
X5.97Y-4.875
X6.01Y-2.975
X6.07Y-4.875
X6.17Y-2.975
X6.17Y-4.875
X6.27Y-2.975
X6.37Y-2.975
X6.37Y-4.875
X6.47Y-2.975
X6.47Y-4.875
X6.57Y-2.975
X6.57Y-4.875
X6.67Y-2.975
X6.67Y-4.875
X6.77Y-2.975
X6.77Y-4.875
X6.87Y-2.975
X6.87Y-4.875
T6
X5.1613Y-4.8451
T7
X4.92Y-4.875
X4.97Y-2.975
T3
G00X4.5733Y-4.5744
M15
G01X4.5419Y-4.5744
M16
G05
G00X4.5733Y-4.915
M15
G01X4.5419Y-4.915
M16
G05
G00X4.7202Y-4.5744
M15
G01X4.6611Y-4.5744
M16
G05
G00X4.7202Y-4.915
M15
G01X4.6611Y-4.915
M16
G05
T0
M30
