%TF.GenerationSoftware,KiCad,Pcbnew,(6.0.0-0)*%
%TF.CreationDate,2023-03-06T23:14:45-07:00*%
%TF.ProjectId,FlippyControl,466c6970-7079-4436-9f6e-74726f6c2e6b,C*%
%TF.SameCoordinates,Original*%
%TF.FileFunction,Profile,NP*%
%FSLAX46Y46*%
G04 Gerber Fmt 4.6, Leading zero omitted, Abs format (unit mm)*
G04 Created by KiCad (PCBNEW (6.0.0-0)) date 2023-03-06 23:14:45*
%MOMM*%
%LPD*%
G01*
G04 APERTURE LIST*
%TA.AperFunction,Profile*%
%ADD10C,0.150000*%
%TD*%
G04 APERTURE END LIST*
D10*
X179632000Y-123765000D02*
X179632000Y-118638000D01*
X179608300Y-75515123D02*
X177128000Y-73025000D01*
X111028000Y-123780000D02*
X113568000Y-126350000D01*
X111028000Y-75650000D02*
X113568000Y-73080000D01*
X177038000Y-126365000D02*
X179632000Y-123765000D01*
X111028000Y-75650000D02*
X111028000Y-123780000D01*
X179608300Y-78992000D02*
X179608300Y-75515123D01*
X179632000Y-106192000D02*
X179608300Y-91438000D01*
X113568000Y-126350000D02*
X177038000Y-126365000D01*
X177128000Y-73025000D02*
X113568000Y-73080000D01*
%TO.C,J1*%
X171183300Y-88390000D02*
X178422300Y-88390000D01*
X171183300Y-82040000D02*
X178422300Y-82040000D01*
X173088300Y-92454000D02*
X175628300Y-92454000D01*
X175628300Y-91438000D02*
X179608300Y-91438000D01*
X173088300Y-78992000D02*
X171183300Y-78992000D01*
X175628300Y-91438000D02*
X175628300Y-92454000D01*
X173088300Y-91438000D02*
X171183300Y-91438000D01*
X175628300Y-78992000D02*
X179608300Y-78992000D01*
X178422300Y-82040000D02*
X178422300Y-88390000D01*
X171183300Y-78992000D02*
X171183300Y-82040000D01*
X173088300Y-92454000D02*
X173088300Y-91438000D01*
X175628300Y-77976000D02*
X175628300Y-78992000D01*
X173088300Y-78992000D02*
X173088300Y-77976000D01*
X173088300Y-77976000D02*
X175628300Y-77976000D01*
X171183300Y-88390000D02*
X171183300Y-91438000D01*
%TO.C,J2*%
X175652000Y-118638000D02*
X179632000Y-118638000D01*
X173112000Y-119654000D02*
X175652000Y-119654000D01*
X171207000Y-106192000D02*
X171207000Y-109240000D01*
X175652000Y-105176000D02*
X175652000Y-106192000D01*
X173112000Y-105176000D02*
X175652000Y-105176000D01*
X173112000Y-118638000D02*
X171207000Y-118638000D01*
X178446000Y-109240000D02*
X178446000Y-115590000D01*
X171207000Y-115590000D02*
X178446000Y-115590000D01*
X171207000Y-109240000D02*
X178446000Y-109240000D01*
X175652000Y-106192000D02*
X179632000Y-106192000D01*
X173112000Y-106192000D02*
X171207000Y-106192000D01*
X171207000Y-115590000D02*
X171207000Y-118638000D01*
X173112000Y-106192000D02*
X173112000Y-105176000D01*
X173112000Y-119654000D02*
X173112000Y-118638000D01*
X175652000Y-118638000D02*
X175652000Y-119654000D01*
%TD*%
M02*
